<svg width="135" height="135" viewBox="0 0 135 135" fill="none" xmlns="http://www.w3.org/2000/svg">
<path d="M135 67.5C135 30.22 104.78 0 67.5 0C30.22 0 0 30.22 0 67.5C0 101.19 24.68 129.12 56.95 134.18V87.01H39.81V67.5H56.95V52.63C56.95 35.71 67.03 26.37 82.45 26.37C89.84 26.37 97.56 27.69 97.56 27.69V44.3H89.05C80.67 44.3 78.05 49.5 78.05 54.84V67.5H96.77L93.78 87.01H78.05V134.18C110.32 129.12 135 101.19 135 67.5Z" fill="#4676ED"/>
<path d="M93.77 87.0199L96.76 67.5099H78.04V54.8499C78.04 49.5099 80.65 44.3099 89.04 44.3099H97.55V27.6999C97.55 27.6999 89.83 26.3799 82.44 26.3799C67.02 26.3799 56.94 35.7199 56.94 52.6399V67.5099H39.8V87.0199H56.94V134.19C60.38 134.73 63.9 135.01 67.49 135.01C71.08 135.01 74.6 134.73 78.04 134.19V87.0199H93.77Z" fill="white"/>
</svg>
