<svg width="136" height="135" viewBox="0 0 136 135" fill="none" xmlns="http://www.w3.org/2000/svg">
<path d="M67.6 135C104.879 135 135.1 104.779 135.1 67.5C135.1 30.2208 104.879 0 67.6 0C30.3208 0 0.0999756 30.2208 0.0999756 67.5C0.0999756 104.779 30.3208 135 67.6 135Z" fill="#DA0000"/>
<path d="M110.72 45.8302C109.69 41.9602 106.64 38.9102 102.76 37.8702C95.74 35.9902 67.6 35.9902 67.6 35.9902C67.6 35.9902 39.46 35.9902 32.44 37.8702C28.57 38.9102 25.52 41.9502 24.48 45.8302C22.6 52.8502 22.6 67.4902 22.6 67.4902C22.6 67.4902 22.6 82.1302 24.48 89.1502C25.51 93.0202 28.56 96.0702 32.44 97.1102C39.46 98.9902 67.6 98.9902 67.6 98.9902C67.6 98.9902 95.74 98.9902 102.76 97.1102C106.63 96.0702 109.68 93.0302 110.72 89.1502C112.6 82.1302 112.6 67.4902 112.6 67.4902C112.6 67.4902 112.6 52.8502 110.72 45.8302ZM58.6 80.9902V53.9902L81.98 67.4902L58.6 80.9902Z" fill="white"/>
</svg>
