<svg width="88" height="79" viewBox="0 0 88 79" fill="none" xmlns="http://www.w3.org/2000/svg">
<path d="M44.173 0C27.6179 0 14.1895 13.6577 14.1895 30.4954C14.1895 44.856 36.0106 70.8657 42.4286 78.1966C43.3831 79.2678 44.9958 79.2678 45.9503 78.1966C52.3683 70.8657 74.1895 44.856 74.1895 30.4954C74.1895 13.6577 60.761 0 44.2059 0H44.173Z" fill="#FF6B00"/>
<ellipse cx="43.6895" cy="15" rx="6.5" ry="6" fill="white"/>
<mask id="path-3-outside-1_407_2242" maskUnits="userSpaceOnUse" x="0" y="18.8418" width="88" height="34" fill="black">
<rect fill="white" y="18.8418" width="88" height="34"/>
<path fill-rule="evenodd" clip-rule="evenodd" d="M24.4099 27.2305L21.6556 32.9406L18.4451 27.0778L15.217 32.9406L14.209 30.387C14.1838 30.312 14.1586 30.237 14.1258 30.1566C13.9948 29.8329 13.8682 29.5056 13.7413 29.1777L13.7413 29.1777L13.7413 29.1777L13.7413 29.1777C13.048 27.3858 12.3494 25.5803 10.9178 24.2938C9.39324 22.9245 7.13028 22.3404 5.29572 23.3532C4.29024 23.9079 3.1008 25.0976 3 26.3677C3.03713 26.339 3.06409 26.3031 3.09223 26.2656L3.09223 26.2656L3.09223 26.2656C3.10611 26.2471 3.12027 26.2282 3.13608 26.2096C3.29988 26.0247 3.47376 25.8532 3.6552 25.6871C4.16676 25.2182 4.70352 24.8189 5.3436 24.5671C6.32136 24.1839 7.33188 24.283 8.229 24.8806C8.95224 25.3629 9.49656 26.0998 9.93252 26.8661C10.2878 27.4878 10.5676 28.1469 10.8473 28.8088C10.8548 28.8275 10.863 28.8463 10.8712 28.865L10.8712 28.8651C10.8794 28.8838 10.8876 28.9026 10.8952 28.9213L11.1068 29.4385L11.132 29.476L15.2144 39.4278L18.5585 32.9326L21.6556 39.4278L27.1643 27.2305H24.4099ZM47.916 36.8262L47.412 39.4307H39.3228V32.0529C39.2293 32.1248 39.1374 32.1988 39.0459 32.2725C38.9415 32.3565 38.8378 32.4401 38.7332 32.5193C38.4686 32.7202 38.2015 32.9185 37.9268 33.1115C37.4052 33.4759 36.8609 33.8135 36.2636 34.0788C35.9108 34.2342 35.5253 34.3307 35.1296 34.3842C34.3157 34.4914 33.4513 34.4084 32.6978 34.186C32.2335 34.0498 31.8004 33.8485 31.3678 33.6474C30.847 33.4054 30.3271 33.1638 29.7545 33.0364L29.7329 33.0312C29.6623 33.0143 29.5935 32.9977 29.5226 32.9855C29.069 32.9132 28.6482 32.9694 28.2122 33.1007C28.1291 33.1249 27.6982 33.2642 27.3605 33.3928C27.3428 33.2106 27.3328 33.0257 27.3328 32.8381C27.3328 32.5488 27.3605 32.2674 27.4008 31.9887C27.7939 29.3065 30.004 27.2325 32.6424 27.2325C35.0666 27.2325 37.1204 28.9823 37.7403 31.3483C37.9808 31.1745 38.2143 30.9936 38.4477 30.8127L38.4477 30.8127L38.4478 30.8127C38.7351 30.59 39.0224 30.3673 39.3228 30.158V27.2307H41.8126V36.8262H47.916ZM14.5814 47.5778C14.5814 47.5778 22.8571 43.4701 35.6688 44.8956C39.141 45.282 42.7001 46.2389 46.2416 47.1911C55.7674 49.7523 65.1663 52.2794 72.4079 43.5773L65.8609 45.7799C58.4808 47.6033 53.8945 46.3105 48.333 44.7426C45.0355 43.8131 41.3951 42.7869 36.6264 42.2563C23.8172 40.8308 14.5814 47.5752 14.5814 47.5752V47.5778ZM60.5771 32.0057V29.8701H65.7658L66.2698 27.2307H58.1025V39.436H65.7658L66.2698 36.7833H60.5771V34.6557H65.7658L66.2698 32.0057H60.5771ZM35.1272 35.4453C34.6257 36.351 33.6983 36.9673 32.6425 36.9673C31.1179 36.9673 29.8503 35.6864 29.752 34.0948C29.7208 34.0883 29.6903 34.0811 29.6599 34.0738C29.6142 34.0628 29.5686 34.0519 29.5202 34.0439C29.0666 33.9715 28.6457 34.0251 28.2098 34.1591C28.1266 34.1832 27.6957 34.3225 27.358 34.4512C27.6226 37.2888 29.8906 39.5155 32.6399 39.5155C35.3893 39.5155 37.7858 37.128 37.9219 34.1698C37.4002 34.5342 36.8559 34.8718 36.2587 35.1371C35.9059 35.2925 35.5228 35.389 35.1247 35.4426L35.1272 35.4453ZM32.1185 32.2938C32.725 32.465 33.1886 32.5957 33.8747 32.5863L33.8722 32.589C34.4291 32.5809 34.9709 32.5139 35.49 32.3907C35.2833 30.9196 34.6912 29.0332 32.6399 29.0332C30.9157 29.0332 30.4056 30.4495 30.0006 31.5741C29.9788 31.6347 29.9573 31.6944 29.9359 31.7529C30.5083 31.8439 31.1169 32.014 31.6422 32.1608C31.7206 32.1826 31.797 32.204 31.8713 32.2245C31.9567 32.2482 32.0388 32.2713 32.1185 32.2938ZM56.7032 27.2307H49.2465V39.4307H51.7237V34.6531H56.1992L56.7032 32.0057H51.7237V29.8701H56.1992L56.7032 27.2307ZM74.9849 34.3781C76.3799 33.6975 77.244 31.8163 76.7903 29.929C76.3997 28.3025 75.0969 27.2307 73.6807 27.2307H67.804C67.804 27.2307 67.7914 27.2388 67.7914 27.2468V34.6557H67.7921V39.41C67.7921 39.41 67.7972 39.4234 67.8047 39.4234H70.2693C70.2693 39.4234 70.2819 39.418 70.2819 39.41V34.6557H72.1504C72.1792 34.6998 72.208 34.7438 72.2369 34.7878C72.5241 35.2266 72.8114 35.6653 73.0987 36.1034C73.3528 36.491 73.5926 36.8919 73.8327 37.2931C74.4143 38.2651 74.9974 39.2397 75.7875 40.0343C76.7149 40.9668 77.9623 41.4786 79.2248 41.5911C80.4344 41.6983 81.9263 41.5081 82.8158 40.5434C83.5466 39.7476 84.0078 38.6865 84.348 37.6495C84.4261 37.4137 84.4967 37.1726 84.5571 36.9287C84.5597 36.9153 84.5471 36.9073 84.537 36.9153C84.537 36.9153 84.0557 37.7701 83.6499 38.3114C82.521 39.8227 80.7696 40.5381 79.1568 39.6592C78.1353 39.1025 77.2277 37.7782 76.8089 37.1672C76.7741 37.1164 76.7427 37.0706 76.7149 37.0306L76.4932 36.6903L74.9849 34.3781ZM70.2938 32.0057H73.7865C74.1141 32.0057 74.414 31.593 74.4366 31.0276C74.4618 30.3953 74.1771 29.8701 73.8167 29.8701H70.2938C70.2862 29.8701 70.2812 29.8915 70.2812 29.8915V31.9842C70.2812 31.9949 70.2938 32.0057 70.2938 32.0057Z"/>
</mask>
<path fill-rule="evenodd" clip-rule="evenodd" d="M24.4099 27.2305L21.6556 32.9406L18.4451 27.0778L15.217 32.9406L14.209 30.387C14.1838 30.312 14.1586 30.237 14.1258 30.1566C13.9948 29.8329 13.8682 29.5056 13.7413 29.1777L13.7413 29.1777L13.7413 29.1777L13.7413 29.1777C13.048 27.3858 12.3494 25.5803 10.9178 24.2938C9.39324 22.9245 7.13028 22.3404 5.29572 23.3532C4.29024 23.9079 3.1008 25.0976 3 26.3677C3.03713 26.339 3.06409 26.3031 3.09223 26.2656L3.09223 26.2656L3.09223 26.2656C3.10611 26.2471 3.12027 26.2282 3.13608 26.2096C3.29988 26.0247 3.47376 25.8532 3.6552 25.6871C4.16676 25.2182 4.70352 24.8189 5.3436 24.5671C6.32136 24.1839 7.33188 24.283 8.229 24.8806C8.95224 25.3629 9.49656 26.0998 9.93252 26.8661C10.2878 27.4878 10.5676 28.1469 10.8473 28.8088C10.8548 28.8275 10.863 28.8463 10.8712 28.865L10.8712 28.8651C10.8794 28.8838 10.8876 28.9026 10.8952 28.9213L11.1068 29.4385L11.132 29.476L15.2144 39.4278L18.5585 32.9326L21.6556 39.4278L27.1643 27.2305H24.4099ZM47.916 36.8262L47.412 39.4307H39.3228V32.0529C39.2293 32.1248 39.1374 32.1988 39.0459 32.2725C38.9415 32.3565 38.8378 32.4401 38.7332 32.5193C38.4686 32.7202 38.2015 32.9185 37.9268 33.1115C37.4052 33.4759 36.8609 33.8135 36.2636 34.0788C35.9108 34.2342 35.5253 34.3307 35.1296 34.3842C34.3157 34.4914 33.4513 34.4084 32.6978 34.186C32.2335 34.0498 31.8004 33.8485 31.3678 33.6474C30.847 33.4054 30.3271 33.1638 29.7545 33.0364L29.7329 33.0312C29.6623 33.0143 29.5935 32.9977 29.5226 32.9855C29.069 32.9132 28.6482 32.9694 28.2122 33.1007C28.1291 33.1249 27.6982 33.2642 27.3605 33.3928C27.3428 33.2106 27.3328 33.0257 27.3328 32.8381C27.3328 32.5488 27.3605 32.2674 27.4008 31.9887C27.7939 29.3065 30.004 27.2325 32.6424 27.2325C35.0666 27.2325 37.1204 28.9823 37.7403 31.3483C37.9808 31.1745 38.2143 30.9936 38.4477 30.8127L38.4477 30.8127L38.4478 30.8127C38.7351 30.59 39.0224 30.3673 39.3228 30.158V27.2307H41.8126V36.8262H47.916ZM14.5814 47.5778C14.5814 47.5778 22.8571 43.4701 35.6688 44.8956C39.141 45.282 42.7001 46.2389 46.2416 47.1911C55.7674 49.7523 65.1663 52.2794 72.4079 43.5773L65.8609 45.7799C58.4808 47.6033 53.8945 46.3105 48.333 44.7426C45.0355 43.8131 41.3951 42.7869 36.6264 42.2563C23.8172 40.8308 14.5814 47.5752 14.5814 47.5752V47.5778ZM60.5771 32.0057V29.8701H65.7658L66.2698 27.2307H58.1025V39.436H65.7658L66.2698 36.7833H60.5771V34.6557H65.7658L66.2698 32.0057H60.5771ZM35.1272 35.4453C34.6257 36.351 33.6983 36.9673 32.6425 36.9673C31.1179 36.9673 29.8503 35.6864 29.752 34.0948C29.7208 34.0883 29.6903 34.0811 29.6599 34.0738C29.6142 34.0628 29.5686 34.0519 29.5202 34.0439C29.0666 33.9715 28.6457 34.0251 28.2098 34.1591C28.1266 34.1832 27.6957 34.3225 27.358 34.4512C27.6226 37.2888 29.8906 39.5155 32.6399 39.5155C35.3893 39.5155 37.7858 37.128 37.9219 34.1698C37.4002 34.5342 36.8559 34.8718 36.2587 35.1371C35.9059 35.2925 35.5228 35.389 35.1247 35.4426L35.1272 35.4453ZM32.1185 32.2938C32.725 32.465 33.1886 32.5957 33.8747 32.5863L33.8722 32.589C34.4291 32.5809 34.9709 32.5139 35.49 32.3907C35.2833 30.9196 34.6912 29.0332 32.6399 29.0332C30.9157 29.0332 30.4056 30.4495 30.0006 31.5741C29.9788 31.6347 29.9573 31.6944 29.9359 31.7529C30.5083 31.8439 31.1169 32.014 31.6422 32.1608C31.7206 32.1826 31.797 32.204 31.8713 32.2245C31.9567 32.2482 32.0388 32.2713 32.1185 32.2938ZM56.7032 27.2307H49.2465V39.4307H51.7237V34.6531H56.1992L56.7032 32.0057H51.7237V29.8701H56.1992L56.7032 27.2307ZM74.9849 34.3781C76.3799 33.6975 77.244 31.8163 76.7903 29.929C76.3997 28.3025 75.0969 27.2307 73.6807 27.2307H67.804C67.804 27.2307 67.7914 27.2388 67.7914 27.2468V34.6557H67.7921V39.41C67.7921 39.41 67.7972 39.4234 67.8047 39.4234H70.2693C70.2693 39.4234 70.2819 39.418 70.2819 39.41V34.6557H72.1504C72.1792 34.6998 72.208 34.7438 72.2369 34.7878C72.5241 35.2266 72.8114 35.6653 73.0987 36.1034C73.3528 36.491 73.5926 36.8919 73.8327 37.2931C74.4143 38.2651 74.9974 39.2397 75.7875 40.0343C76.7149 40.9668 77.9623 41.4786 79.2248 41.5911C80.4344 41.6983 81.9263 41.5081 82.8158 40.5434C83.5466 39.7476 84.0078 38.6865 84.348 37.6495C84.4261 37.4137 84.4967 37.1726 84.5571 36.9287C84.5597 36.9153 84.5471 36.9073 84.537 36.9153C84.537 36.9153 84.0557 37.7701 83.6499 38.3114C82.521 39.8227 80.7696 40.5381 79.1568 39.6592C78.1353 39.1025 77.2277 37.7782 76.8089 37.1672C76.7741 37.1164 76.7427 37.0706 76.7149 37.0306L76.4932 36.6903L74.9849 34.3781ZM70.2938 32.0057H73.7865C74.1141 32.0057 74.414 31.593 74.4366 31.0276C74.4618 30.3953 74.1771 29.8701 73.8167 29.8701H70.2938C70.2862 29.8701 70.2812 29.8915 70.2812 29.8915V31.9842C70.2812 31.9949 70.2938 32.0057 70.2938 32.0057Z" fill="white"/>
<path d="M21.6556 32.9406L19.0242 34.3815C19.564 35.3672 20.6094 35.9686 21.7329 35.9396C22.8563 35.9107 23.8694 35.2562 24.3576 34.244L21.6556 32.9406ZM24.4099 27.2305V24.2305C23.2582 24.2305 22.2082 24.8898 21.7078 25.9271L24.4099 27.2305ZM18.4451 27.0778L21.0764 25.6369C20.5505 24.6766 19.5434 24.0791 18.4485 24.0778C17.3537 24.0765 16.3452 24.6718 15.8171 25.6308L18.4451 27.0778ZM15.217 32.9406L12.4265 34.0421C12.8533 35.1233 13.8661 35.8606 15.0261 35.9346C16.186 36.0085 17.2843 35.4058 17.8449 34.3876L15.217 32.9406ZM14.209 30.387L11.3651 31.3422C11.3816 31.3914 11.3994 31.4402 11.4185 31.4885L14.209 30.387ZM14.1258 30.1566L11.3448 31.2818L11.3476 31.2888L14.1258 30.1566ZM13.7413 29.1777L16.5392 28.0951C16.5351 28.0846 16.531 28.0741 16.5268 28.0636L13.7413 29.1777ZM13.7413 29.1777L10.9435 30.2603C10.9475 30.2709 10.9517 30.2814 10.9559 30.2919L13.7413 29.1777ZM10.9178 24.2938L12.9232 22.0625L12.9224 22.0618L10.9178 24.2938ZM5.29572 23.3532L6.74479 25.9801L6.74572 25.9795L5.29572 23.3532ZM3 26.3677L0.00940348 26.1304C-0.0845262 27.3139 0.528355 28.4415 1.57261 29.0064C2.61687 29.5713 3.89603 29.4672 4.83522 28.7409L3 26.3677ZM3.09223 26.2656L5.49182 28.0661C5.52635 28.0201 5.55955 27.9731 5.59138 27.9252L3.09223 26.2656ZM3.09223 26.2656L0.869272 24.251C0.768456 24.3623 0.676134 24.4809 0.593082 24.606L3.09223 26.2656ZM3.09223 26.2656L5.31519 28.2801C5.37734 28.2116 5.43628 28.1401 5.49182 28.0661L3.09223 26.2656ZM3.13608 26.2096L0.890567 24.2202C0.877317 24.2352 0.864217 24.2503 0.851269 24.2655L3.13608 26.2096ZM3.6552 25.6871L5.68113 27.8997L5.68235 27.8986L3.6552 25.6871ZM5.3436 24.5671L4.24898 21.7739L4.24507 21.7754L5.3436 24.5671ZM8.229 24.8806L9.89348 22.3847L9.89206 22.3837L8.229 24.8806ZM9.93252 26.8661L7.32493 28.3495L7.32795 28.3548L9.93252 26.8661ZM10.8473 28.8088L13.6298 27.6873C13.6235 27.6718 13.6171 27.6563 13.6106 27.6409L10.8473 28.8088ZM10.8712 28.865L8.12187 30.0655C8.13016 30.0845 8.13865 30.1034 8.14733 30.1222L10.8712 28.865ZM10.8712 28.8651L13.6206 27.6646C13.6123 27.6456 13.6038 27.6267 13.5951 27.6079L10.8712 28.8651ZM10.8952 28.9213L8.11266 30.0428C8.11467 30.0478 8.1167 30.0528 8.11874 30.0578L10.8952 28.9213ZM11.1068 29.4385L8.33042 30.5749C8.40739 30.763 8.50327 30.9427 8.61657 31.1114L11.1068 29.4385ZM11.132 29.476L13.9076 28.3374C13.8308 28.1501 13.7352 27.9711 13.6223 27.8031L11.132 29.476ZM15.2144 39.4278L12.4389 40.5664C12.883 41.649 13.9161 42.3746 15.0852 42.425C16.2543 42.4754 17.346 41.8414 17.8817 40.801L15.2144 39.4278ZM18.5585 32.9326L21.2664 31.6414C20.7757 30.6123 19.7442 29.9503 18.6043 29.9329C17.4643 29.9156 16.4131 30.5458 15.8912 31.5594L18.5585 32.9326ZM21.6556 39.4278L18.9476 40.719C19.4503 41.7731 20.5189 42.4398 21.6866 42.4277C22.8544 42.4156 23.909 41.7269 24.3896 40.6626L21.6556 39.4278ZM27.1643 27.2305L29.8984 28.4653C30.3177 27.5369 30.2372 26.4592 29.6846 25.6033C29.1321 24.7475 28.183 24.2305 27.1643 24.2305V27.2305ZM47.412 39.4307V42.4307C48.8491 42.4307 50.0843 41.4116 50.3574 40.0006L47.412 39.4307ZM47.916 36.8262L50.8614 37.3961C51.0315 36.5169 50.8 35.6077 50.2301 34.917C49.6602 34.2262 48.8115 33.8262 47.916 33.8262V36.8262ZM39.3228 39.4307H36.3228C36.3228 41.0875 37.6659 42.4307 39.3228 42.4307V39.4307ZM39.3228 32.0529H42.3228C42.3228 30.91 41.6734 29.8664 40.6481 29.3615C39.6228 28.8566 38.3997 28.9781 37.4937 29.6749L39.3228 32.0529ZM39.0459 32.2725L40.9276 34.609L40.9276 34.609L39.0459 32.2725ZM38.7332 32.5193L36.9221 30.1277L36.9187 30.1302L38.7332 32.5193ZM37.9268 33.1115L39.6449 35.5708L39.6511 35.5664L37.9268 33.1115ZM36.2636 34.0788L37.473 36.8242L37.4814 36.8205L36.2636 34.0788ZM35.1296 34.3842L35.5213 37.3586L35.5323 37.3571L35.1296 34.3842ZM32.6978 34.186L33.5471 31.3087L33.5422 31.3072L32.6978 34.186ZM31.3678 33.6474L32.6321 30.9269L32.6321 30.9269L31.3678 33.6474ZM29.7545 33.0364L29.0528 35.9532C29.0696 35.9573 29.0864 35.9611 29.1033 35.9649L29.7545 33.0364ZM29.7329 33.0312L29.0305 35.9479L29.0311 35.948L29.7329 33.0312ZM29.5226 32.9855L30.0297 30.0287C30.0182 30.0267 30.0067 30.0248 29.9951 30.023L29.5226 32.9855ZM28.2122 33.1007L29.0478 35.982C29.0577 35.9792 29.0675 35.9763 29.0774 35.9733L28.2122 33.1007ZM27.3605 33.3928L24.3744 33.6819C24.4646 34.6132 24.9841 35.4491 25.7792 35.9422C26.5743 36.4354 27.5539 36.5294 28.4283 36.1963L27.3605 33.3928ZM27.4008 31.9887L24.4325 31.5537L24.4317 31.5592L27.4008 31.9887ZM37.7403 31.3483L34.8383 32.1087C35.0891 33.0661 35.7961 33.8382 36.7277 34.1722C37.6593 34.5063 38.6958 34.3594 39.4979 33.7796L37.7403 31.3483ZM38.4477 30.8127L40.2853 33.1841C40.2975 33.1746 40.3097 33.165 40.3218 33.1553L38.4477 30.8127ZM38.4477 30.8127L40.3218 33.1553C40.3277 33.1506 40.3336 33.1458 40.3395 33.141L38.4477 30.8127ZM38.4478 30.8127L36.6102 28.4413C36.592 28.4554 36.5739 28.4698 36.556 28.4843L38.4478 30.8127ZM39.3228 30.158L41.0384 32.619C41.8432 32.058 42.3228 31.139 42.3228 30.158H39.3228ZM39.3228 27.2307V24.2307C37.6659 24.2307 36.3228 25.5739 36.3228 27.2307H39.3228ZM41.8126 27.2307H44.8126C44.8126 25.5739 43.4694 24.2307 41.8126 24.2307V27.2307ZM41.8126 36.8262H38.8126C38.8126 38.483 40.1557 39.8262 41.8126 39.8262V36.8262ZM35.6688 44.8956L35.337 47.8772L35.337 47.8772L35.6688 44.8956ZM14.5814 47.5778H11.5814C11.5814 48.616 12.1182 49.5804 13.0005 50.1275C13.8829 50.6746 14.9853 50.7266 15.9153 50.265L14.5814 47.5778ZM46.2416 47.1911L45.4626 50.0882L45.4626 50.0882L46.2416 47.1911ZM72.4079 43.5773L74.7139 45.4962C75.5722 44.4648 75.6412 42.9888 74.8828 41.8818C74.1244 40.7748 72.7231 40.306 71.4513 40.7339L72.4079 43.5773ZM65.8609 45.7799L66.5805 48.6923C66.6604 48.6725 66.7395 48.6495 66.8175 48.6233L65.8609 45.7799ZM48.333 44.7426L49.1469 41.8552L49.1469 41.8552L48.333 44.7426ZM36.6264 42.2563L36.2946 45.2379L36.2946 45.2379L36.6264 42.2563ZM14.5814 47.5752L12.8122 45.1524C12.0387 45.7172 11.5814 46.6174 11.5814 47.5752H14.5814ZM60.5771 29.8701V26.8701C58.9203 26.8701 57.5771 28.2132 57.5771 29.8701H60.5771ZM60.5771 32.0057H57.5771C57.5771 33.6625 58.9203 35.0057 60.5771 35.0057V32.0057ZM65.7658 29.8701V32.8701C67.2057 32.8701 68.4425 31.8471 68.7126 30.4328L65.7658 29.8701ZM66.2698 27.2307L69.2166 27.7934C69.3843 26.9151 69.1514 26.0077 68.5815 25.3187C68.0116 24.6296 67.164 24.2307 66.2698 24.2307V27.2307ZM58.1025 27.2307V24.2307C56.4456 24.2307 55.1025 25.5739 55.1025 27.2307H58.1025ZM58.1025 39.436H55.1025C55.1025 41.0929 56.4456 42.436 58.1025 42.436V39.436ZM65.7658 39.436V42.436C67.2067 42.436 68.4441 41.4116 68.7131 39.996L65.7658 39.436ZM66.2698 36.7833L69.2171 37.3432C69.3839 36.4652 69.1506 35.5586 68.5806 34.8702C68.0107 34.1817 67.1635 33.7833 66.2698 33.7833V36.7833ZM60.5771 36.7833H57.5771C57.5771 38.4401 58.9203 39.7833 60.5771 39.7833V36.7833ZM60.5771 34.6557V31.6557C58.9203 31.6557 57.5771 32.9989 57.5771 34.6557H60.5771ZM65.7658 34.6557V37.6557C67.2065 37.6557 68.4438 36.6316 68.713 35.2162L65.7658 34.6557ZM66.2698 32.0057L69.217 32.5662C69.384 31.6881 69.1507 30.7813 68.5808 30.0927C68.0109 29.4042 67.1636 29.0057 66.2698 29.0057V32.0057ZM35.1272 35.4453L37.7517 36.8985C38.3833 35.7578 38.2058 34.3397 37.3125 33.3899L35.1272 35.4453ZM29.752 34.0948L32.7463 33.9099C32.6628 32.5578 31.6836 31.4294 30.3568 31.1564L29.752 34.0948ZM29.6599 34.0738L28.9614 36.9913L28.9614 36.9913L29.6599 34.0738ZM29.5202 34.0439L30.0118 31.0844C30.0055 31.0834 29.9991 31.0823 29.9927 31.0813L29.5202 34.0439ZM28.2098 34.1591L29.0454 37.0404C29.0606 37.0359 29.0759 37.0314 29.091 37.0267L28.2098 34.1591ZM27.358 34.4512L26.2902 31.6476C25.0308 32.1273 24.2459 33.3879 24.371 34.7297L27.358 34.4512ZM37.9219 34.1698L40.9187 34.3077C40.9712 33.1659 40.3704 32.0935 39.3693 31.5421C38.3682 30.9906 37.1407 31.0559 36.2038 31.7105L37.9219 34.1698ZM36.2587 35.1371L37.4681 37.8826L37.4764 37.8788L36.2587 35.1371ZM35.1247 35.4426L34.7245 32.4694C33.6104 32.6194 32.6736 33.3796 32.2975 34.439C31.9214 35.4984 32.1692 36.6791 32.9394 37.498L35.1247 35.4426ZM33.8747 32.5863L36.0611 34.6404C36.8854 33.763 37.1054 32.4778 36.6198 31.3762C36.1342 30.2745 35.037 29.5699 33.8332 29.5866L33.8747 32.5863ZM32.1185 32.2938L31.3039 35.1811L31.3039 35.1811L32.1185 32.2938ZM33.8722 32.589L31.6857 30.5348C30.8612 31.4125 30.6413 32.6981 31.1274 33.7999C31.6135 34.9017 32.7113 35.606 33.9155 35.5886L33.8722 32.589ZM35.49 32.3907L36.183 35.3095C37.6894 34.9518 38.6762 33.5066 38.4608 31.9733L35.49 32.3907ZM30.0006 31.5741L32.8231 32.5907L32.8231 32.5907L30.0006 31.5741ZM29.9359 31.7529L27.1175 30.7249C26.8105 31.5667 26.8958 32.5017 27.3501 33.274C27.8044 34.0463 28.5802 34.5752 29.4652 34.7158L29.9359 31.7529ZM31.6422 32.1608L30.8348 35.0501L30.8348 35.0501L31.6422 32.1608ZM31.8713 32.2245L32.6715 29.3332L32.6704 29.3329L31.8713 32.2245ZM49.2465 27.2307V24.2307C47.5897 24.2307 46.2465 25.5739 46.2465 27.2307H49.2465ZM56.7032 27.2307L59.65 27.7934C59.8177 26.9151 59.5848 26.0077 59.0149 25.3187C58.445 24.6296 57.5974 24.2307 56.7032 24.2307V27.2307ZM49.2465 39.4307H46.2465C46.2465 41.0875 47.5897 42.4307 49.2465 42.4307V39.4307ZM51.7237 39.4307V42.4307C53.3805 42.4307 54.7237 41.0875 54.7237 39.4307H51.7237ZM51.7237 34.6531V31.6531C50.0668 31.6531 48.7237 32.9962 48.7237 34.6531H51.7237ZM56.1992 34.6531V37.6531C57.6397 37.6531 58.8769 36.6292 59.1463 35.2141L56.1992 34.6531ZM56.7032 32.0057L59.6503 32.5667C59.8174 31.6886 59.5843 30.7816 59.0144 30.093C58.4445 29.4043 57.5971 29.0057 56.7032 29.0057V32.0057ZM51.7237 32.0057H48.7237C48.7237 33.6625 50.0668 35.0057 51.7237 35.0057V32.0057ZM51.7237 29.8701V26.8701C50.0668 26.8701 48.7237 28.2132 48.7237 29.8701H51.7237ZM56.1992 29.8701V32.8701C57.6391 32.8701 58.8759 31.8471 59.146 30.4328L56.1992 29.8701ZM74.9849 34.3781L73.6695 31.6819C72.8962 32.0591 72.3222 32.7502 72.0932 33.5795C71.8641 34.4088 72.0022 35.2965 72.4722 36.0171L74.9849 34.3781ZM76.7903 29.929L73.8733 30.6296L73.8734 30.6302L76.7903 29.929ZM67.804 27.2307V24.2307C67.2324 24.2307 66.6727 24.394 66.1908 24.7014L67.804 27.2307ZM67.7914 34.6557H64.7914C64.7914 36.3126 66.1346 37.6557 67.7914 37.6557V34.6557ZM67.7921 34.6557H70.7921C70.7921 32.9989 69.449 31.6557 67.7921 31.6557V34.6557ZM67.7921 39.41H64.7921C64.7921 39.7709 64.8573 40.1289 64.9844 40.4667L67.7921 39.41ZM70.2693 39.4234V42.4234C70.6729 42.4234 71.0724 42.3419 71.4439 42.1839L70.2693 39.4234ZM70.2819 34.6557V31.6557C68.625 31.6557 67.2819 32.9989 67.2819 34.6557H70.2819ZM72.1504 34.6557L74.6602 33.0123C74.1059 32.1658 73.1623 31.6557 72.1504 31.6557V34.6557ZM72.2369 34.7878L74.7468 33.1445L74.7467 33.1444L72.2369 34.7878ZM73.0987 36.1034L75.6078 34.4588L75.6074 34.4584L73.0987 36.1034ZM73.8327 37.2931L76.4071 35.7528L76.4071 35.7528L73.8327 37.2931ZM75.7875 40.0343L73.6602 42.1496L73.6604 42.1498L75.7875 40.0343ZM79.2248 41.5911L78.9585 44.5793L78.96 44.5794L79.2248 41.5911ZM82.8158 40.5434L85.0212 42.5772L85.0255 42.5726L82.8158 40.5434ZM84.348 37.6495L81.5002 36.706L81.4975 36.7144L84.348 37.6495ZM84.5571 36.9287L87.4689 37.6509C87.4827 37.5953 87.4949 37.5392 87.5055 37.4828L84.5571 36.9287ZM84.537 36.9153L82.6663 34.57C82.3647 34.8106 82.1122 35.1072 81.9229 35.4434L84.537 36.9153ZM83.6499 38.3114L81.2495 36.512L81.2465 36.516L83.6499 38.3114ZM79.1568 39.6592L77.7212 42.2934L77.7213 42.2934L79.1568 39.6592ZM76.8089 37.1672L79.2835 35.4712L79.2834 35.4711L76.8089 37.1672ZM76.7149 37.0306L74.2014 38.6684C74.2176 38.6932 74.2341 38.7177 74.2509 38.7419L76.7149 37.0306ZM76.4932 36.6903L79.0066 35.0524L79.0058 35.0513L76.4932 36.6903ZM70.2938 32.0057L68.3503 34.291C68.8928 34.7523 69.5817 35.0057 70.2938 35.0057V32.0057ZM74.4366 31.0276L77.4342 31.1478L77.4343 31.1471L74.4366 31.0276ZM70.2812 29.8915L67.3609 29.2045C67.3079 29.4297 67.2812 29.6602 67.2812 29.8915H70.2812ZM24.3576 34.244L27.112 28.5339L21.7078 25.9271L18.9535 31.6373L24.3576 34.244ZM15.8138 28.5187L19.0242 34.3815L24.2869 31.4997L21.0764 25.6369L15.8138 28.5187ZM17.8449 34.3876L21.0731 28.5248L15.8171 25.6308L12.589 31.4937L17.8449 34.3876ZM11.4185 31.4885L12.4265 34.0421L18.0074 31.8391L16.9994 29.2855L11.4185 31.4885ZM11.3476 31.2888C11.3423 31.2757 11.3403 31.2697 11.3428 31.2768C11.3442 31.2806 11.3464 31.287 11.3502 31.2981C11.3542 31.3098 11.3585 31.3225 11.3651 31.3422L17.0528 29.4318C17.0306 29.3655 16.9774 29.2047 16.904 29.0244L11.3476 31.2888ZM10.9435 30.2603C11.0689 30.5845 11.2038 30.9333 11.3448 31.2818L16.9068 29.0314C16.7859 28.7326 16.6674 28.4266 16.5392 28.0951L10.9435 30.2603ZM10.9559 30.2919L10.9559 30.2919L16.5268 28.0636L16.5268 28.0636L10.9559 30.2919ZM10.9559 30.2919L10.9559 30.2919L16.5268 28.0636L16.5268 28.0635L10.9559 30.2919ZM10.9559 30.2919L10.9559 30.2919L16.5268 28.0635L16.5267 28.0635L10.9559 30.2919ZM8.91249 26.525C9.72008 27.2508 10.1996 28.3378 10.9435 30.2603L16.5392 28.0951C15.8964 26.4339 14.9787 23.9098 12.9232 22.0625L8.91249 26.525ZM6.74572 25.9795C6.9638 25.8591 7.25696 25.799 7.65348 25.8756C8.06862 25.9559 8.52735 26.1791 8.91329 26.5257L12.9224 22.0618C10.7451 20.1064 7.11229 18.9234 3.84572 20.7269L6.74572 25.9795ZM5.9906 26.6051C5.98194 26.7142 5.95572 26.7555 5.97156 26.7221C5.98775 26.6878 6.03088 26.6121 6.11822 26.5068C6.30667 26.2795 6.56056 26.0817 6.74479 25.9801L3.84665 20.7264C3.0254 21.1794 2.18183 21.8539 1.49899 22.6776C0.833128 23.4808 0.125696 24.6651 0.00940348 26.1304L5.9906 26.6051ZM0.692639 24.465C0.667638 24.4984 0.71499 24.4333 0.778572 24.3596C0.853033 24.2733 0.981109 24.1366 1.16478 23.9945L4.83522 28.7409C5.05602 28.5701 5.21614 28.4011 5.3204 28.2803C5.41378 28.1721 5.48868 28.0703 5.49182 28.0661L0.692639 24.465ZM0.593082 24.606L0.59308 24.606L5.59138 27.9252L5.59138 27.9252L0.593082 24.606ZM0.869273 24.251L0.869272 24.251L5.31519 28.2801L5.31519 28.2801L0.869273 24.251ZM0.851269 24.2655C0.766553 24.3651 0.698973 24.4566 0.692651 24.465L5.49182 28.0661C5.50095 28.054 5.49391 28.0634 5.4843 28.0758C5.47295 28.0905 5.45088 28.1185 5.42089 28.1538L0.851269 24.2655ZM1.62927 23.4745C1.39446 23.6895 1.14206 23.9364 0.890567 24.2202L5.38159 28.199C5.4577 28.1131 5.55306 28.017 5.68113 27.8997L1.62927 23.4745ZM4.24507 21.7754C3.12545 22.216 2.27568 22.882 1.62805 23.4756L5.68235 27.8986C6.05784 27.5544 6.28159 27.4219 6.44213 27.3587L4.24507 21.7754ZM9.89206 22.3837C8.17359 21.2391 6.1328 21.0356 4.24898 21.7739L6.43822 27.3602C6.47765 27.3448 6.49988 27.341 6.50592 27.3401C6.51143 27.3393 6.50848 27.3402 6.50055 27.3394C6.49256 27.3385 6.49034 27.3371 6.49665 27.3394C6.5034 27.3419 6.52679 27.3513 6.56594 27.3774L9.89206 22.3837ZM12.5401 25.3827C12.0096 24.4502 11.1841 23.2454 9.89348 22.3847L6.56452 27.3765C6.72037 27.4804 6.98352 27.7494 7.32493 28.3495L12.5401 25.3827ZM13.6106 27.6409C13.341 27.003 12.9955 26.1795 12.5371 25.3774L7.32795 28.3548C7.58017 28.7961 7.7941 29.2909 8.08394 29.9767L13.6106 27.6409ZM13.6205 27.6646C13.6183 27.6595 13.6173 27.6572 13.6165 27.6554C13.6159 27.6538 13.6161 27.6542 13.6168 27.6559C13.6181 27.659 13.623 27.6705 13.6298 27.6873L8.06478 29.9303C8.09107 29.9955 8.11668 30.0536 8.12187 30.0655L13.6205 27.6646ZM13.5951 27.6079L13.5951 27.6079L8.14733 30.1222L8.14734 30.1222L13.5951 27.6079ZM13.6777 27.7999C13.6514 27.7346 13.6257 27.6764 13.6206 27.6646L8.12189 30.0655C8.12411 30.0706 8.1251 30.0729 8.12591 30.0748C8.1266 30.0763 8.12639 30.0759 8.12567 30.0742C8.12436 30.0711 8.11942 30.0596 8.11266 30.0428L13.6777 27.7999ZM13.8833 28.302L13.6716 27.7849L8.11874 30.0578L8.33042 30.5749L13.8833 28.302ZM13.6223 27.8031L13.5971 27.7656L8.61657 31.1114L8.64177 31.1489L13.6223 27.8031ZM17.99 38.2892L13.9076 28.3374L8.35649 30.6146L12.4389 40.5664L17.99 38.2892ZM15.8912 31.5594L12.5472 38.0546L17.8817 40.801L21.2257 34.3058L15.8912 31.5594ZM24.3635 38.1366L21.2664 31.6414L15.8506 34.2238L18.9476 40.719L24.3635 38.1366ZM24.4302 25.9957L18.9215 38.193L24.3896 40.6626L29.8984 28.4653L24.4302 25.9957ZM24.4099 30.2305H27.1643V24.2305H24.4099V30.2305ZM50.3574 40.0006L50.8614 37.3961L44.9706 36.2562L44.4666 38.8607L50.3574 40.0006ZM39.3228 42.4307H47.412V36.4307H39.3228V42.4307ZM36.3228 32.0529V39.4307H42.3228V32.0529H36.3228ZM40.9276 34.609C41.0234 34.5318 41.0893 34.4789 41.1519 34.4308L37.4937 29.6749C37.3693 29.7707 37.2513 29.8658 37.1642 29.936L40.9276 34.609ZM40.5444 34.9109C40.6908 34.8 40.8295 34.688 40.9276 34.609L37.1642 29.936C37.0536 30.0251 36.9849 30.0801 36.9221 30.1277L40.5444 34.9109ZM39.6511 35.5664C39.9673 35.3443 40.2667 35.1218 40.5477 34.9083L36.9187 30.1302C36.6706 30.3187 36.4357 30.4927 36.2025 30.6565L39.6511 35.5664ZM37.4814 36.8205C38.3198 36.4481 39.0386 35.9944 39.6449 35.5708L36.2087 30.6522C35.7718 30.9574 35.4019 31.1789 35.0458 31.3371L37.4814 36.8205ZM35.5323 37.3571C36.1376 37.2751 36.8068 37.1177 37.473 36.8242L35.0542 31.3334C35.0148 31.3507 34.9129 31.3862 34.7269 31.4114L35.5323 37.3571ZM31.8486 37.0632C32.976 37.396 34.2631 37.5242 35.5213 37.3586L34.738 31.4099C34.3682 31.4586 33.9266 31.4207 33.5471 31.3087L31.8486 37.0632ZM30.1034 36.368C30.5036 36.5539 31.1379 36.8548 31.8534 37.0647L33.5422 31.3072C33.3291 31.2447 33.0972 31.143 32.6321 30.9269L30.1034 36.368ZM29.1033 35.9649C29.3067 36.0101 29.5368 36.1047 30.1034 36.368L32.6321 30.9269C32.1573 30.7062 31.3474 30.3174 30.4057 30.108L29.1033 35.9649ZM29.0311 35.948L29.0528 35.9532L30.4562 30.1197L30.4346 30.1145L29.0311 35.948ZM29.0155 35.9424C29.0011 35.9399 28.9901 35.9377 28.9832 35.9364C28.9764 35.935 28.9731 35.9342 28.9743 35.9345C28.9758 35.9348 28.9803 35.9359 28.99 35.9382C28.9948 35.9393 29.0003 35.9406 29.0071 35.9422C29.0141 35.9439 29.0214 35.9457 29.0305 35.9479L30.4352 30.1146C30.3804 30.1014 30.2151 30.0605 30.0297 30.0287L29.0155 35.9424ZM29.0774 35.9733C29.1544 35.9501 29.1747 35.9504 29.1565 35.9522C29.1471 35.9531 29.1311 35.9541 29.1102 35.9535C29.0892 35.953 29.0686 35.951 29.0501 35.9481L29.9951 30.023C28.9755 29.8603 28.084 30.0063 27.3471 30.2282L29.0774 35.9733ZM28.4283 36.1963C28.5456 36.1516 28.6967 36.0986 28.8382 36.0511C28.9064 36.0281 28.9661 36.0085 29.0106 35.9942C29.0668 35.9761 29.0728 35.9748 29.0478 35.982L27.3767 30.2195C27.2099 30.2678 26.7015 30.4336 26.2926 30.5893L28.4283 36.1963ZM24.3328 32.8381C24.3328 33.1332 24.3486 33.4151 24.3744 33.6819L30.3465 33.1037C30.3371 33.0061 30.3328 32.9182 30.3328 32.8381H24.3328ZM24.4317 31.5592C24.3787 31.9255 24.3328 32.3588 24.3328 32.8381H30.3328C30.3328 32.7388 30.3422 32.6093 30.3699 32.4183L24.4317 31.5592ZM32.6424 24.2325C28.363 24.2325 25.0187 27.5541 24.4325 31.5537L30.3691 32.4238C30.5691 31.0589 31.6449 30.2325 32.6424 30.2325V24.2325ZM40.6424 30.588C39.7154 27.0501 36.5775 24.2325 32.6424 24.2325V30.2325C33.5558 30.2325 34.5254 30.9145 34.8383 32.1087L40.6424 30.588ZM36.6101 28.4414C36.3703 28.6272 36.1761 28.7773 35.9828 28.917L39.4979 33.7796C39.7856 33.5716 40.0583 33.3599 40.2853 33.1841L36.6101 28.4414ZM36.5736 28.4701L36.5736 28.4701L40.3218 33.1553L40.3218 33.1553L36.5736 28.4701ZM36.556 28.4843L36.556 28.4843L40.3395 33.141L40.3395 33.141L36.556 28.4843ZM37.6072 27.6969C37.2345 27.9567 36.8879 28.2261 36.6102 28.4413L40.2853 33.184C40.5824 32.9538 40.8104 32.7779 41.0384 32.619L37.6072 27.6969ZM36.3228 27.2307V30.158H42.3228V27.2307H36.3228ZM41.8126 24.2307H39.3228V30.2307H41.8126V24.2307ZM44.8126 36.8262V27.2307H38.8126V36.8262H44.8126ZM47.916 33.8262H41.8126V39.8262H47.916V33.8262ZM36.0006 41.914C29.2064 41.1581 23.5908 41.8668 19.6449 42.7793C17.672 43.2355 16.1136 43.7432 15.0294 44.1463C14.487 44.3479 14.0626 44.5236 13.7634 44.654C13.6138 44.7192 13.4954 44.7731 13.4091 44.8134C13.366 44.8335 13.3309 44.8502 13.304 44.8632C13.2905 44.8697 13.279 44.8752 13.2696 44.8798C13.2649 44.8821 13.2608 44.8842 13.2571 44.886C13.2553 44.8869 13.2536 44.8877 13.252 44.8885C13.2512 44.8889 13.2501 44.8894 13.2497 44.8896C13.2487 44.8902 13.2476 44.8907 14.5814 47.5778C15.9153 50.265 15.9143 50.2655 15.9134 50.266C15.9131 50.2661 15.9122 50.2665 15.9117 50.2668C15.9106 50.2673 15.9096 50.2678 15.9088 50.2682C15.9072 50.269 15.906 50.2696 15.9053 50.2699C15.904 50.2706 15.9046 50.2703 15.9072 50.269C15.9123 50.2665 15.9253 50.2604 15.9459 50.2507C15.9871 50.2315 16.0591 50.1986 16.1607 50.1542C16.3642 50.0656 16.6863 49.9315 17.12 49.7703C17.9879 49.4477 19.2991 49.0176 20.9966 48.625C24.3915 47.84 29.3195 47.2077 35.337 47.8772L36.0006 41.914ZM47.0205 44.294C43.5248 43.3541 39.7403 42.3301 36.0006 41.914L35.337 47.8772C38.5418 48.2338 41.8753 49.1237 45.4626 50.0882L47.0205 44.294ZM70.1019 41.6583C67.0873 45.2809 63.7694 46.4969 60.0897 46.6093C56.1712 46.729 51.8904 45.6033 47.0205 44.294L45.4626 50.0882C50.1185 51.34 55.3001 52.7585 60.2729 52.6065C65.4845 52.4473 70.4869 50.5757 74.7139 45.4962L70.1019 41.6583ZM66.8175 48.6233L73.3645 46.4207L71.4513 40.7339L64.9043 42.9365L66.8175 48.6233ZM47.519 47.6301C53.1689 49.2228 58.3996 50.7136 66.5805 48.6923L65.1413 42.8674C58.5621 44.493 54.6201 43.3981 49.1469 41.8552L47.519 47.6301ZM36.2946 45.2379C40.7971 45.7388 44.2306 46.7031 47.519 47.6301L49.1469 41.8552C45.8404 40.9231 41.9932 39.8349 36.9582 39.2747L36.2946 45.2379ZM14.5814 47.5752C16.3507 49.9979 16.3498 49.9986 16.349 49.9992C16.3487 49.9993 16.3479 49.9999 16.3475 50.0003C16.3466 50.0009 16.3458 50.0015 16.3451 50.002C16.3438 50.0029 16.3431 50.0035 16.3428 50.0036C16.3424 50.0039 16.3442 50.0027 16.3481 49.9999C16.3559 49.9943 16.3723 49.9827 16.3972 49.9655C16.4469 49.931 16.5303 49.8741 16.646 49.7984C16.8776 49.6469 17.2374 49.4205 17.7147 49.1474C18.6708 48.6003 20.0882 47.8712 21.8799 47.1802C25.4716 45.7951 30.4902 44.5919 36.2946 45.2379L36.9582 39.2747C29.9534 38.4951 23.9496 39.9513 19.721 41.5821C17.6027 42.399 15.9106 43.2669 14.7347 43.9398C14.1459 44.2767 13.6842 44.5661 13.3606 44.7779C13.1987 44.8838 13.0712 44.9704 12.9794 45.0341C12.9335 45.0659 12.8965 45.092 12.8686 45.1118C12.8546 45.1218 12.8429 45.1301 12.8335 45.1369C12.8288 45.1403 12.8247 45.1433 12.8212 45.1459C12.8194 45.1472 12.8177 45.1484 12.8163 45.1494C12.8155 45.15 12.8145 45.1507 12.8141 45.151C12.8132 45.1517 12.8122 45.1524 14.5814 47.5752ZM17.5814 47.5778V47.5752H11.5814V47.5778H17.5814ZM57.5771 29.8701V32.0057H63.5771V29.8701H57.5771ZM65.7658 26.8701H60.5771V32.8701H65.7658V26.8701ZM63.323 26.668L62.819 29.3074L68.7126 30.4328L69.2166 27.7934L63.323 26.668ZM58.1025 30.2307H66.2698V24.2307H58.1025V30.2307ZM61.1025 39.436V27.2307H55.1025V39.436H61.1025ZM65.7658 36.436H58.1025V42.436H65.7658V36.436ZM63.3225 36.2233L62.8185 38.8761L68.7131 39.996L69.2171 37.3432L63.3225 36.2233ZM60.5771 39.7833H66.2698V33.7833H60.5771V39.7833ZM57.5771 34.6557V36.7833H63.5771V34.6557H57.5771ZM65.7658 31.6557H60.5771V37.6557H65.7658V31.6557ZM63.3226 31.4452L62.8186 34.0952L68.713 35.2162L69.217 32.5662L63.3226 31.4452ZM60.5771 35.0057H66.2698V29.0057H60.5771V35.0057ZM32.6425 39.9673C34.9129 39.9673 36.7844 38.6454 37.7517 36.8985L32.5026 33.9921C32.4898 34.0153 32.4816 34.0151 32.4997 34.0038C32.51 33.9974 32.5283 33.9878 32.555 33.9799C32.5824 33.9718 32.6128 33.9673 32.6425 33.9673V39.9673ZM26.7577 34.2797C26.9433 37.2849 29.3693 39.9673 32.6425 39.9673V33.9673C32.6859 33.9673 32.7255 33.9771 32.7535 33.9892C32.7788 34.0002 32.7863 34.0092 32.7825 34.0054C32.7712 33.9941 32.7495 33.9612 32.7463 33.9099L26.7577 34.2797ZM28.9614 36.9913C28.9847 36.9969 29.0614 37.0155 29.1473 37.0332L30.3568 31.1564C30.3643 31.1579 30.3702 31.1592 30.3741 31.1601C30.378 31.1609 30.3803 31.1614 30.3804 31.1615C30.3805 31.1615 30.3791 31.1612 30.3753 31.1603C30.3711 31.1593 30.3665 31.1582 30.3584 31.1562L28.9614 36.9913ZM29.0285 37.0033C28.9869 36.9964 28.9569 36.99 28.9456 36.9875C28.94 36.9862 28.9376 36.9857 28.9404 36.9863C28.9441 36.9872 28.9488 36.9883 28.9614 36.9913L30.3584 31.1562C30.3265 31.1486 30.1806 31.1125 30.0118 31.0844L29.0285 37.0033ZM29.091 37.0267C29.1574 37.0063 29.1716 37.0078 29.1495 37.0099C29.1385 37.011 29.1221 37.0119 29.1021 37.0114C29.0819 37.0108 29.0633 37.0089 29.0477 37.0064L29.9927 31.0813C28.9827 30.9202 28.0895 31.0576 27.3285 31.2914L29.091 37.0267ZM28.4259 37.2547C28.5432 37.21 28.6942 37.157 28.8357 37.1094C28.9039 37.0865 28.9637 37.0669 29.0082 37.0526C29.0643 37.0345 29.0704 37.0331 29.0454 37.0404L27.3742 31.2778C27.2075 31.3262 26.699 31.4919 26.2902 31.6476L28.4259 37.2547ZM32.6399 36.5155C31.5942 36.5155 30.4807 35.627 30.3451 34.1726L24.371 34.7297C24.7646 38.9506 28.187 42.5155 32.6399 42.5155V36.5155ZM34.925 34.0319C34.8558 35.5372 33.6413 36.5155 32.6399 36.5155V42.5155C37.1372 42.5155 40.7158 38.7188 40.9187 34.3077L34.925 34.0319ZM37.4764 37.8788C38.3149 37.5064 39.0336 37.0527 39.6399 36.6291L36.2038 31.7105C35.7668 32.0158 35.3969 32.2373 35.0409 32.3954L37.4764 37.8788ZM35.5248 38.4158C36.1372 38.3334 36.8038 38.1752 37.4681 37.8825L35.0492 32.3917C35.0079 32.4099 34.9084 32.4446 34.7245 32.4694L35.5248 38.4158ZM37.3125 33.3899L37.3099 33.3872L32.9394 37.498L32.9419 37.5006L37.3125 33.3899ZM33.8332 29.5866C33.7064 29.5883 33.6214 29.5785 33.5287 29.5609C33.401 29.5365 33.2599 29.4987 32.9331 29.4065L31.3039 35.1811C31.9194 35.3548 32.7537 35.602 33.9161 35.586L33.8332 29.5866ZM36.0586 34.6431L36.0611 34.6404L31.6882 30.5321L31.6857 30.5348L36.0586 34.6431ZM34.7969 29.4718C34.4969 29.5431 34.1732 29.5843 33.8288 29.5893L33.9155 35.5886C34.6849 35.5775 35.4449 35.4848 36.183 35.3095L34.7969 29.4718ZM32.6399 32.0332C32.6728 32.0332 32.5708 32.0349 32.425 31.951C32.2913 31.8741 32.2403 31.7937 32.2488 31.8066C32.2642 31.8301 32.3162 31.9224 32.3756 32.1179C32.4336 32.3088 32.4817 32.541 32.5192 32.808L38.4608 31.9733C38.3384 31.1017 38.0632 29.7306 37.2646 28.514C36.3495 27.12 34.797 26.0332 32.6399 26.0332V32.0332ZM32.8231 32.5907C32.9304 32.2928 32.9997 32.1049 33.0743 31.9401C33.1461 31.7816 33.1828 31.7377 33.1729 31.7501C33.1529 31.7752 33.069 31.8691 32.9135 31.9479C32.7513 32.0301 32.6351 32.0332 32.6399 32.0332V26.0332C30.7774 26.0332 29.385 26.8744 28.4782 28.0138C27.7233 28.9624 27.3472 30.0879 27.1781 30.5576L32.8231 32.5907ZM32.7543 32.7809C32.7781 32.7157 32.8017 32.6502 32.8231 32.5907L27.1781 30.5576C27.1559 30.6191 27.1365 30.673 27.1175 30.7249L32.7543 32.7809ZM32.4497 29.2715C31.9573 29.1339 31.1796 28.9129 30.4067 28.7901L29.4652 34.7158C29.837 34.7748 30.2766 34.8941 30.8348 35.0501L32.4497 29.2715ZM32.6704 29.3329C32.6011 29.3138 32.5288 29.2936 32.4497 29.2715L30.8348 35.0501C30.9124 35.0717 30.993 35.0943 31.0721 35.1161L32.6704 29.3329ZM32.9331 29.4065C32.8544 29.3843 32.7652 29.3592 32.6715 29.3332L31.0711 35.1158C31.1482 35.1372 31.2233 35.1584 31.3039 35.1811L32.9331 29.4065ZM49.2465 30.2307H56.7032V24.2307H49.2465V30.2307ZM52.2465 39.4307V27.2307H46.2465V39.4307H52.2465ZM51.7237 36.4307H49.2465V42.4307H51.7237V36.4307ZM48.7237 34.6531V39.4307H54.7237V34.6531H48.7237ZM56.1992 31.6531H51.7237V37.6531H56.1992V31.6531ZM53.7561 31.4446L53.2521 34.092L59.1463 35.2141L59.6503 32.5667L53.7561 31.4446ZM51.7237 35.0057H56.7032V29.0057H51.7237V35.0057ZM48.7237 29.8701V32.0057H54.7237V29.8701H48.7237ZM56.1992 26.8701H51.7237V32.8701H56.1992V26.8701ZM53.7564 26.668L53.2524 29.3074L59.146 30.4328L59.65 27.7934L53.7564 26.668ZM76.3004 37.0743C79.1456 35.6861 80.4389 32.2713 79.7072 29.2278L73.8734 30.6302C73.9463 30.9332 73.9088 31.2218 73.8166 31.4403C73.7175 31.6755 73.6129 31.7095 73.6695 31.6819L76.3004 37.0743ZM79.7074 29.2285C79.041 26.4538 76.68 24.2307 73.6807 24.2307V30.2307C73.6174 30.2307 73.6182 30.2054 73.6713 30.2508C73.7238 30.2956 73.8203 30.4091 73.8733 30.6296L79.7074 29.2285ZM73.6807 24.2307H67.804V30.2307H73.6807V24.2307ZM67.804 27.2307C66.1908 24.7014 66.1902 24.7018 66.1896 24.7021C66.1894 24.7022 66.1889 24.7026 66.1885 24.7028C66.1878 24.7033 66.187 24.7038 66.1862 24.7043C66.1847 24.7053 66.1832 24.7062 66.1817 24.7072C66.1786 24.7092 66.1755 24.7112 66.1724 24.7132C66.1661 24.7173 66.1596 24.7216 66.1529 24.7259C66.1397 24.7347 66.1256 24.7441 66.1108 24.7542C66.0815 24.7742 66.0479 24.7979 66.0111 24.8253C65.9427 24.8762 65.8394 24.9574 65.7238 25.068C65.6188 25.1685 65.4305 25.3621 65.2518 25.647C65.0848 25.9133 64.7914 26.4734 64.7914 27.2468H70.7914C70.7914 28.0162 70.4996 28.5722 70.3349 28.8348C70.1586 29.1159 69.9735 29.306 69.8716 29.4035C69.7591 29.5111 69.659 29.5897 69.593 29.6389C69.5574 29.6654 69.5247 29.6884 69.4961 29.708C69.4817 29.7178 69.4679 29.7271 69.4548 29.7357C69.4482 29.74 69.4418 29.7442 69.4356 29.7482C69.4325 29.7503 69.4294 29.7523 69.4263 29.7542C69.4248 29.7552 69.4233 29.7562 69.4218 29.7571C69.421 29.7576 69.4203 29.7581 69.4195 29.7586C69.4191 29.7588 69.4186 29.7592 69.4184 29.7593C69.4178 29.7597 69.4173 29.76 67.804 27.2307ZM64.7914 27.2468V34.6557H70.7914V27.2468H64.7914ZM67.7914 37.6557H67.7921V31.6557H67.7914V37.6557ZM64.7921 34.6557V39.41H70.7921V34.6557H64.7921ZM67.7921 39.41C64.9844 40.4667 64.9847 40.4674 64.9849 40.4681C64.985 40.4683 64.9853 40.469 64.9854 40.4695C64.9858 40.4704 64.9861 40.4713 64.9865 40.4722C64.9872 40.474 64.9879 40.4759 64.9886 40.4777C64.99 40.4815 64.9914 40.4852 64.9929 40.4891C64.9959 40.4967 64.9989 40.5046 65.0021 40.5127C65.0085 40.5289 65.0155 40.5462 65.0231 40.5644C65.0382 40.6005 65.0565 40.6426 65.0784 40.6891C65.1185 40.7743 65.1871 40.9103 65.29 41.0666C65.3813 41.2052 65.5759 41.4782 65.9004 41.7436C66.2265 42.0103 66.8795 42.4234 67.8047 42.4234V36.4234C68.7261 36.4234 69.3757 36.8348 69.6988 37.099C70.0202 37.3619 70.2121 37.6315 70.3011 37.7668C70.4019 37.9197 70.4688 38.0524 70.5077 38.1351C70.529 38.1804 70.5469 38.2214 70.5616 38.2567C70.569 38.2746 70.5759 38.2916 70.5822 38.3076C70.5854 38.3156 70.5884 38.3234 70.5914 38.331C70.5928 38.3348 70.5943 38.3386 70.5957 38.3423C70.5964 38.3441 70.5971 38.346 70.5978 38.3478C70.5981 38.3487 70.5985 38.3496 70.5988 38.3505C70.599 38.351 70.5992 38.3517 70.5993 38.3519C70.5996 38.3526 70.5998 38.3533 67.7921 39.41ZM67.8047 42.4234H70.2693V36.4234H67.8047V42.4234ZM70.2693 39.4234C71.4439 42.1839 71.4446 42.1836 71.4453 42.1833C71.4456 42.1832 71.4463 42.1829 71.4468 42.1827C71.4478 42.1822 71.4488 42.1818 71.4497 42.1814C71.4517 42.1806 71.4537 42.1797 71.4557 42.1788C71.4597 42.1771 71.4637 42.1754 71.4678 42.1736C71.476 42.17 71.4845 42.1663 71.4932 42.1624C71.5105 42.1547 71.5289 42.1462 71.5483 42.1371C71.5867 42.119 71.6312 42.0971 71.68 42.0711C71.7704 42.023 71.9098 41.9432 72.0673 41.8259C72.1641 41.7538 73.2819 40.9633 73.2819 39.41H67.2819C67.2819 38.5989 67.6033 37.9972 67.8489 37.6576C68.0884 37.3264 68.3427 37.1187 68.4839 37.0135C68.6382 36.8986 68.7744 36.8206 68.8625 36.7738C68.9102 36.7484 68.9536 36.727 68.9913 36.7092C69.0104 36.7002 69.0286 36.6919 69.0457 36.6843C69.0543 36.6804 69.0627 36.6767 69.0708 36.6732C69.0749 36.6714 69.0789 36.6697 69.0829 36.668C69.0849 36.6671 69.0869 36.6662 69.0888 36.6654C69.0898 36.665 69.0908 36.6646 69.0918 36.6642C69.0923 36.6639 69.093 36.6636 69.0932 36.6635C69.094 36.6632 69.0947 36.6629 70.2693 39.4234ZM73.2819 39.41V34.6557H67.2819V39.41H73.2819ZM70.2819 37.6557H72.1504V31.6557H70.2819V37.6557ZM69.6406 36.2991C69.6701 36.3443 69.6972 36.3856 69.727 36.4312L74.7467 33.1444C74.7189 33.1019 74.6883 33.0552 74.6602 33.0123L69.6406 36.2991ZM69.727 36.4311C70.0142 36.8697 70.302 37.3094 70.59 37.7485L75.6074 34.4584C75.3208 34.0213 75.0341 33.5834 74.7468 33.1445L69.727 36.4311ZM70.5897 37.748C70.8043 38.0755 71.0128 38.4231 71.2584 38.8335L76.4071 35.7528C76.1724 35.3606 75.9012 34.9066 75.6078 34.4588L70.5897 37.748ZM71.2583 38.8335C71.8055 39.7479 72.5674 41.0505 73.6602 42.1496L77.9149 37.9191C77.4274 37.4288 77.0231 36.7824 76.4071 35.7528L71.2583 38.8335ZM73.6604 42.1498C75.152 43.6496 77.0916 44.4129 78.9585 44.5793L79.4912 38.603C78.833 38.5443 78.2778 38.284 77.9147 37.9189L73.6604 42.1498ZM78.96 44.5794C80.4456 44.7111 83.1613 44.5941 85.0212 42.5772L80.6104 38.5097C80.6753 38.4393 80.6703 38.496 80.4304 38.5544C80.1886 38.6133 79.8544 38.6352 79.4896 38.6029L78.96 44.5794ZM85.0255 42.5726C86.1944 41.2996 86.8172 39.747 87.1985 38.5847L81.4975 36.7144C81.1984 37.6261 80.8988 38.1956 80.6062 38.5143L85.0255 42.5726ZM87.1957 38.5931C87.2962 38.29 87.3886 37.9749 87.4689 37.6509L81.6454 36.2065C81.6048 36.3702 81.5561 36.5375 81.5002 36.706L87.1957 38.5931ZM87.5055 37.4828C87.7043 36.4254 87.3277 35.145 86.1941 34.4035C85.0313 33.6428 83.6122 33.8156 82.6663 34.57L86.4076 39.2607C85.4718 40.0071 84.0641 40.1799 82.9095 39.4246C81.7841 38.6884 81.4126 37.4187 81.6088 36.3747L87.5055 37.4828ZM84.537 36.9153C81.9229 35.4434 81.923 35.4433 81.923 35.4432C81.9231 35.4431 81.9231 35.443 81.9232 35.443C81.9232 35.4428 81.9233 35.4427 81.9233 35.4426C81.9235 35.4424 81.9235 35.4423 81.9236 35.4422C81.9237 35.442 81.9237 35.4419 81.9236 35.4421C81.9234 35.4425 81.9228 35.4436 81.9217 35.4455C81.9196 35.4492 81.9158 35.4559 81.9105 35.4652C81.8998 35.4839 81.8831 35.5131 81.8614 35.5505C81.8176 35.6258 81.7552 35.7319 81.6822 35.852C81.5238 36.1124 81.3627 36.361 81.2495 36.512L86.0504 40.1107C86.3429 39.7205 86.6253 39.2711 86.8091 38.9688C86.9071 38.8075 86.9903 38.6662 87.0495 38.5643C87.0793 38.5131 87.1033 38.4712 87.1205 38.441C87.1292 38.4259 87.1361 38.4137 87.1412 38.4047C87.1438 38.4001 87.1459 38.3964 87.1475 38.3935C87.1484 38.3921 87.1491 38.3908 87.1497 38.3898C87.1499 38.3893 87.1502 38.3888 87.1504 38.3884C87.1506 38.3882 87.1507 38.388 87.1508 38.3878C87.1508 38.3877 87.1509 38.3876 87.1509 38.3875C87.151 38.3874 87.151 38.3873 84.537 36.9153ZM81.2465 36.516C80.9766 36.8773 80.7338 37.0033 80.6436 37.0331C80.6062 37.0454 80.6023 37.0401 80.6213 37.0416C80.6435 37.0434 80.6374 37.0495 80.5923 37.025L77.7213 42.2934C81.0977 44.1335 84.38 42.3468 86.0534 40.1068L81.2465 36.516ZM80.5924 37.025C80.6006 37.0295 80.5435 36.998 80.426 36.8921C80.3132 36.7905 80.1826 36.6547 80.0392 36.4866C79.7464 36.1433 79.4943 35.7788 79.2835 35.4712L74.3343 38.8631C74.5422 39.1665 74.9534 39.7697 75.4744 40.3806C75.9641 40.9546 76.7301 41.7533 77.7212 42.2934L80.5924 37.025ZM79.2834 35.4711C79.2503 35.4228 79.2131 35.3685 79.1789 35.3192L74.2509 38.7419C74.2723 38.7727 74.2979 38.8101 74.3343 38.8632L79.2834 35.4711ZM79.2284 35.3927L79.0066 35.0524L73.9797 38.3281L74.2014 38.6684L79.2284 35.3927ZM79.0058 35.0513L77.4976 32.7391L72.4722 36.0171L73.9805 38.3293L79.0058 35.0513ZM73.7865 29.0057H70.2938V35.0057H73.7865V29.0057ZM71.4391 30.9074C71.4467 30.7172 71.503 30.3962 71.7488 30.0364C71.9643 29.7209 72.6182 29.0057 73.7865 29.0057V35.0057C75.2824 35.0057 76.25 34.0841 76.7031 33.4209C77.1864 32.7135 77.4039 31.9035 77.4342 31.1478L71.4391 30.9074ZM73.8167 32.8701C72.405 32.8701 71.7582 31.8727 71.6289 31.6323C71.4478 31.2954 71.4339 31.036 71.439 30.9082L77.4343 31.1471C77.4646 30.3869 77.3209 29.5487 76.9136 28.7911C76.5582 28.1301 75.5888 26.8701 73.8167 26.8701V32.8701ZM70.2938 32.8701H73.8167V26.8701H70.2938V32.8701ZM70.2812 29.8915C73.2014 30.5785 73.2013 30.579 73.2012 30.5795C73.2012 30.5796 73.2011 30.5801 73.201 30.5804C73.2008 30.5811 73.2007 30.5817 73.2005 30.5824C73.2002 30.5836 73.1999 30.5849 73.1996 30.5862C73.199 30.5889 73.1984 30.5915 73.1977 30.5942C73.1964 30.5995 73.1951 30.605 73.1937 30.6107C73.1909 30.622 73.1879 30.634 73.1845 30.6467C73.178 30.6718 73.17 30.7013 73.1602 30.7345C73.1431 30.7928 73.1107 30.8966 73.0588 31.0227C73.0205 31.1157 72.904 31.3918 72.6721 31.6952C72.5521 31.8522 72.3288 32.1131 71.9787 32.3513C71.6114 32.6012 71.0344 32.8701 70.2938 32.8701V26.8701C68.8281 26.8701 68.0482 27.8645 67.9051 28.0516C67.6701 28.3591 67.5509 28.6405 67.5105 28.7389C67.4564 28.8703 67.4222 28.9795 67.4039 29.0419C67.3936 29.077 67.3851 29.1082 67.3783 29.1345C67.3748 29.1478 67.3716 29.1603 67.3688 29.1718C67.3673 29.1777 67.366 29.1833 67.3646 29.1887C67.364 29.1914 67.3634 29.1941 67.3627 29.1967C67.3624 29.198 67.3621 29.1994 67.3618 29.2006C67.3616 29.2013 67.3615 29.2019 67.3613 29.2026C67.3613 29.2029 67.3612 29.2034 67.3611 29.2035C67.361 29.204 67.3609 29.2045 70.2812 29.8915ZM73.2812 31.9842V29.8915H67.2812V31.9842H73.2812ZM70.2938 32.0057C72.2373 29.7203 72.2378 29.7208 72.2384 29.7212C72.2385 29.7214 72.2391 29.7219 72.2395 29.7222C72.2402 29.7228 72.2409 29.7234 72.2417 29.7241C72.2432 29.7253 72.2447 29.7266 72.2462 29.7279C72.2492 29.7305 72.2522 29.7331 72.2552 29.7357C72.2613 29.741 72.2676 29.7464 72.2739 29.752C72.2866 29.7632 72.2999 29.775 72.3138 29.7876C72.3412 29.8126 72.3718 29.8415 72.4047 29.8742C72.467 29.936 72.5542 30.0279 72.6485 30.1481C72.7376 30.2618 72.8746 30.4532 72.9978 30.7152C73.1172 30.9689 73.2812 31.4106 73.2812 31.9842H67.2812C67.2812 33.0431 67.8321 33.7295 67.9265 33.8498C68.0238 33.974 68.1142 34.0693 68.1789 34.1335C68.213 34.1673 68.2446 34.1971 68.2727 34.2227C68.2869 34.2356 68.3004 34.2478 68.3133 34.2591C68.3198 34.2647 68.3261 34.2702 68.3322 34.2756C68.3353 34.2782 68.3384 34.2808 68.3414 34.2834C68.3429 34.2847 68.3444 34.286 68.3459 34.2872C68.3466 34.2879 68.3473 34.2885 68.3481 34.2891C68.3484 34.2895 68.349 34.2899 68.3492 34.2901C68.3497 34.2906 68.3503 34.291 70.2938 32.0057Z" fill="#FF6B00" mask="url(#path-3-outside-1_407_2242)"/>
</svg>
