<svg width="136" height="135" viewBox="0 0 136 135" fill="none" xmlns="http://www.w3.org/2000/svg">
<path d="M68.3601 135C105.639 135 135.86 104.779 135.86 67.5C135.86 30.2208 105.639 0 68.3601 0C31.0809 0 0.860107 30.2208 0.860107 67.5C0.860107 104.779 31.0809 135 68.3601 135Z" fill="#68B82B"/>
<path d="M114.14 64.0097C114.14 43.4297 93.5002 26.6797 68.1402 26.6797C42.7802 26.6797 22.1401 43.4297 22.1401 64.0097C22.1401 82.4597 38.5001 97.9197 60.6101 100.84C62.1101 101.16 64.1501 101.83 64.6601 103.11C65.1201 104.27 64.9601 106.09 64.8101 107.27C64.8101 107.27 64.2701 110.52 64.1501 111.21C63.9501 112.37 63.2301 115.76 68.1301 113.69C73.0401 111.62 94.6201 98.0897 104.27 86.9797C110.94 79.6697 114.13 72.2497 114.13 64.0097" fill="white"/>
<path d="M58.7902 54.0596H55.5602C55.0702 54.0596 54.6602 54.4596 54.6602 54.9496V74.9896C54.6602 75.4796 55.0602 75.8796 55.5602 75.8796H58.7902C59.2802 75.8796 59.6902 75.4796 59.6902 74.9896V54.9496C59.6902 54.4596 59.2902 54.0596 58.7902 54.0596Z" fill="#68B82B"/>
<path d="M81.0003 54.0596H77.7703C77.2703 54.0596 76.8703 54.4596 76.8703 54.9496V66.8596L67.6803 54.4596C67.6803 54.4596 67.6303 54.3996 67.6103 54.3696C67.6103 54.3696 67.5703 54.3296 67.5603 54.3096C67.5603 54.3096 67.5503 54.2996 67.5403 54.2896C67.5203 54.2796 67.5103 54.2596 67.4903 54.2496C67.4903 54.2496 67.4703 54.2396 67.4703 54.2296C67.4503 54.2196 67.4403 54.2096 67.4203 54.1996C67.4203 54.1996 67.4003 54.1896 67.3903 54.1796C67.3703 54.1796 67.3603 54.1596 67.3403 54.1496C67.3403 54.1496 67.3203 54.1496 67.3103 54.1396C67.2903 54.1396 67.2803 54.1196 67.2603 54.1196C67.2503 54.1196 67.2403 54.1196 67.2303 54.1096C67.2103 54.1096 67.2003 54.0996 67.1803 54.0896C67.1703 54.0896 67.1603 54.0896 67.1503 54.0896C67.1303 54.0896 67.1203 54.0896 67.1003 54.0796C67.0903 54.0796 67.0703 54.0796 67.0603 54.0796C67.0403 54.0796 67.0303 54.0796 67.0103 54.0796C66.9903 54.0796 66.9803 54.0796 66.9603 54.0796C66.9503 54.0796 66.9403 54.0796 66.9303 54.0796H63.7003C63.2103 54.0796 62.8003 54.4796 62.8003 54.9696V75.0096C62.8003 75.4996 63.2003 75.8996 63.7003 75.8996H66.9303C67.4303 75.8996 67.8303 75.4996 67.8303 75.0096V63.1096L77.0303 75.5296C77.0903 75.6196 77.1703 75.6896 77.2603 75.7496C77.2803 75.7596 77.3003 75.7696 77.3203 75.7796C77.3203 75.7796 77.3403 75.7796 77.3503 75.7896C77.3603 75.7896 77.3803 75.7996 77.3903 75.8096C77.4003 75.8096 77.4203 75.8196 77.4303 75.8296C77.4303 75.8296 77.4503 75.8296 77.4603 75.8396C77.4803 75.8396 77.5003 75.8496 77.5203 75.8596C77.5203 75.8596 77.5203 75.8596 77.5303 75.8596C77.6003 75.8796 77.6803 75.8896 77.7603 75.8896H80.9903C81.4903 75.8896 81.8903 75.4896 81.8903 74.9996V54.9596C81.8903 54.4696 81.4903 54.0696 80.9903 54.0696" fill="#68B82B"/>
<path d="M51.0102 70.8698H42.2402V54.9498C42.2402 54.4598 41.8402 54.0498 41.3402 54.0498H38.1102C37.6202 54.0498 37.2102 54.4498 37.2102 54.9498V74.9898C37.2102 75.2298 37.3102 75.4498 37.4602 75.6098C37.4602 75.6098 37.4602 75.6098 37.4702 75.6198C37.4702 75.6198 37.4702 75.6198 37.4802 75.6298C37.6402 75.7798 37.8602 75.8798 38.1002 75.8798H50.9902C51.4802 75.8798 51.8802 75.4798 51.8802 74.9798V71.7498C51.8802 71.2598 51.4802 70.8498 50.9902 70.8498" fill="#68B82B"/>
<path d="M98.8202 59.0798C99.3102 59.0798 99.7101 58.6798 99.7101 58.1798V54.9498C99.7101 54.4498 99.3102 54.0498 98.8202 54.0498H85.9301C85.6901 54.0498 85.4702 54.1498 85.3102 54.2998C85.3102 54.2998 85.3101 54.2998 85.3001 54.2998C85.3001 54.2998 85.2902 54.3098 85.2902 54.3198C85.1402 54.4798 85.0402 54.6998 85.0402 54.9398V74.9798C85.0402 75.2198 85.1402 75.4398 85.2902 75.5998C85.2902 75.5998 85.2901 75.5998 85.3001 75.6098C85.3001 75.6098 85.3002 75.6098 85.3102 75.6198C85.4702 75.7698 85.6901 75.8698 85.9301 75.8698H98.8202C99.3102 75.8698 99.7101 75.4698 99.7101 74.9698V71.7398C99.7101 71.2498 99.3102 70.8398 98.8202 70.8398H90.0501V67.4498H98.8202C99.3102 67.4498 99.7101 67.0498 99.7101 66.5498V63.3198C99.7101 62.8198 99.3102 62.4198 98.8202 62.4198H90.0501V59.0298H98.8202V59.0798Z" fill="#68B82B"/>
</svg>
