<svg width="18" height="16" viewBox="0 0 18 16" fill="none" xmlns="http://www.w3.org/2000/svg">
<path d="M6.71963 1.83507L3.93931 4.79993H0.749939C0.335564 4.79993 -6.10352e-05 5.15791 -6.10352e-05 5.59989V10.3997C-6.10352e-05 10.8413 0.335564 11.1996 0.749939 11.1996H3.93931L6.71963 14.1645C7.18931 14.6655 7.99994 14.3135 7.99994 13.5988V2.40071C7.99994 1.68541 7.18869 1.33476 6.71963 1.83507ZM14.0109 0.132482C13.6618 -0.11184 13.1928 -0.00884507 12.9637 0.364137C12.7343 0.736453 12.8318 1.23676 13.1809 1.48108C15.2518 2.93068 16.4878 5.36757 16.4878 8.00011C16.4878 10.6327 15.2518 13.0695 13.1809 14.5191C12.8318 14.7631 12.7343 15.2638 12.9637 15.6358C13.1837 15.9927 13.649 16.1211 14.0109 15.8674C16.5084 14.1188 17.9999 11.1773 17.9999 7.99978C17.9999 4.82226 16.5084 1.88107 14.0109 0.132482ZM14.9999 7.99978C14.9999 5.88221 13.9981 3.9353 12.3196 2.79202C11.9699 2.55403 11.5062 2.6647 11.2846 3.04068C11.0631 3.41666 11.1665 3.9143 11.5162 4.15263C12.7584 4.99892 13.4999 6.43685 13.4999 7.99978C13.4999 9.56271 12.7584 11.0006 11.5162 11.8469C11.1665 12.0849 11.0631 12.5826 11.2846 12.9589C11.4881 13.3042 11.9446 13.4635 12.3196 13.2075C13.9981 12.0643 14.9999 10.1177 14.9999 7.99978ZM10.5696 5.43757C10.2078 5.22658 9.75119 5.36557 9.55056 5.75255C9.35088 6.13953 9.48306 6.62584 9.84588 6.8395C10.2493 7.07582 10.4999 7.5208 10.4999 7.99978C10.4999 8.47909 10.2493 8.92374 9.84619 9.16006C9.48338 9.37371 9.35119 9.86002 9.55088 10.247C9.75181 10.6357 10.2087 10.7736 10.5699 10.562C11.4521 10.0437 12.0003 9.06206 12.0003 7.99945C12.0003 6.93683 11.4521 5.95554 10.5696 5.43757Z" fill="black"/>
</svg>
