<svg width="808" height="1049" viewBox="0 0 808 1049" fill="none" xmlns="http://www.w3.org/2000/svg">
<path d="M0 0H808V1049H0V0Z" fill="#AADAFF"/>
<path d="M641.565 777.609C641.076 776.63 640.488 775.651 639.803 774.77C639.118 773.89 638.727 773.498 639.118 772.617C639.51 771.736 640.88 770.464 641.565 769.387C642.25 768.311 642.25 767.43 642.642 766.94C643.131 766.549 643.914 766.549 643.914 765.864C643.62 764.885 643.229 763.906 642.642 763.025C642.25 762.144 642.25 761.753 641.761 761.459C641.076 761.264 640.293 761.264 639.607 761.459C638.727 761.753 637.846 761.949 636.965 762.144C636.084 762.144 635.203 761.753 634.322 761.949C633.441 762.144 632.56 763.025 631.484 763.025C630.309 762.83 629.135 762.438 628.156 761.753C627.275 761.361 626.884 761.264 626.688 761.655C626.492 762.34 626.59 763.123 626.884 763.808C627.373 764.689 628.156 765.472 629.037 765.962C629.918 766.353 630.799 766.353 630.799 767.528C630.505 769.094 630.113 770.562 629.722 772.128C629.526 773.4 629.918 773.89 630.994 773.694C632.071 773.498 633.833 772.617 634.518 772.617C635.203 772.617 634.714 773.498 634.909 774.379C635.301 775.456 636.084 776.239 637.063 776.826C638.041 777.413 639.216 777.805 640.293 778.098C641.369 778.294 641.859 778.294 641.565 777.609Z" fill="white"/>
<path d="M93.3605 563.846C94.2414 564.042 94.6329 564.531 94.6329 564.042C94.4371 563.161 94.2414 562.28 93.9478 561.399C93.752 560.518 93.752 560.127 93.2626 559.833C92.4796 559.54 91.5009 559.735 90.8157 560.225C89.7391 561.106 88.5646 561.889 87.2922 562.672C86.2155 563.063 85.3347 562.672 84.8453 563.553C84.3559 564.433 84.4538 566.587 85.2368 566.782C86.1177 566.978 87.8794 565.216 89.3476 564.336C90.7179 563.748 92.0881 563.553 93.3605 563.846Z" fill="white"/>
<path d="M87.4877 556.211C87.292 556.211 87.292 556.602 87.0962 556.602C86.9005 556.602 86.4111 556.211 86.0196 556.211C85.5302 556.309 85.1387 556.602 84.943 557.092C84.7472 557.385 84.7472 557.875 84.943 558.168C85.1387 558.364 85.6281 558.364 86.0196 558.56C86.509 558.756 86.9005 559.245 87.292 559.441C87.5856 559.637 88.075 559.637 88.3686 559.441C88.5644 559.147 88.5644 558.854 88.3686 558.56C88.1729 558.364 87.6835 558.364 87.6835 558.168C87.6835 557.973 88.075 557.483 88.075 557.092C88.075 556.602 87.8792 556.309 87.4877 556.211Z" fill="white"/>
<path d="M94.0455 599.179C93.3603 598.983 92.9688 598.983 92.7731 598.787C92.5773 598.592 92.5773 598.102 92.3816 597.907C92.1858 597.711 91.7943 597.711 91.5986 597.907C91.5986 598.004 91.5007 598.004 91.5007 598.102C91.3049 598.494 91.3049 599.375 91.1092 599.668C90.9134 599.864 90.424 599.473 90.2283 599.668C90.0325 600.256 89.9347 600.843 90.0325 601.43C89.9347 601.919 90.0325 602.507 90.2283 602.996C90.424 603.388 90.9134 603.877 91.1092 603.877C91.3049 603.877 91.3049 603.485 91.3049 602.996C91.2071 602.605 91.3049 602.213 91.5007 601.919C91.6964 601.724 92.1858 601.724 92.3816 601.528C92.5773 601.332 92.5773 600.843 92.7731 600.647C93.0667 600.451 93.5561 600.451 93.8497 600.647C94.2412 600.843 94.7306 601.332 95.1221 601.528C95.4157 601.724 95.9051 601.724 96.1987 601.528C96.3945 601.332 96.3945 600.843 96.003 600.451C95.4157 599.766 94.7306 599.375 94.0455 599.179Z" fill="white"/>
<path d="M86.1176 595.264C85.9218 594.774 85.9219 594.285 85.9219 593.698C85.9219 593.306 85.9218 592.817 85.5303 592.817C85.1388 592.817 84.2579 593.208 83.7686 593.208C83.2792 593.208 83.3771 592.817 82.8877 592.523C82.4962 592.327 81.6153 592.327 81.3217 592.719C81.1259 593.11 81.5174 593.991 81.7132 595.557C81.9089 597.123 81.9089 598.787 81.7132 600.353C81.5174 601.43 81.028 601.43 80.4408 602.115C79.6578 602.8 79.1684 603.779 78.8748 604.758C78.8748 605.443 79.7556 605.443 80.4408 605.149C81.028 604.856 81.6153 604.464 82.2025 604.073C82.7898 603.681 83.4749 603.387 84.1601 603.192C84.5516 603.192 84.5516 603.583 84.8452 604.073C85.041 604.562 85.4325 604.855 85.9219 604.953C86.4112 604.953 86.7049 604.562 86.8027 604.073C86.8027 603.681 86.4112 603.192 86.1176 602.506C85.9218 601.821 85.9218 601.136 86.1176 600.549C86.3134 600.157 86.8027 600.157 86.9985 599.668C87.1942 598.983 87.1942 598.2 86.9985 597.515C86.8027 596.732 86.4112 595.851 86.1176 595.264Z" fill="white"/>
<path d="M107.357 489.46C108.434 488.775 109.412 487.894 110.391 487.013C111.272 486.328 111.663 486.328 112.153 485.936C112.642 485.447 112.936 484.664 113.034 483.979C113.034 483.294 112.642 482.902 111.957 482.217C111.272 481.532 110.391 480.651 109.804 480.945C109.119 481.141 108.727 482.511 107.846 483.392C106.965 484.273 105.693 484.664 105.204 485.545C104.91 486.622 105.106 487.698 105.595 488.579C105.987 489.46 106.476 489.851 107.357 489.46Z" fill="white"/>
<path d="M135.643 539.866C135.154 539.474 134.566 539.181 133.881 538.985C133 538.789 131.728 538.789 131.043 538.104C130.456 537.223 130.26 536.147 130.358 535.07C130.26 534.189 130.358 533.308 130.554 532.427C130.749 531.742 131.239 531.351 130.945 530.665C130.456 529.785 129.771 528.904 128.988 528.316C128.107 527.435 127.226 526.555 126.834 526.555C126.443 526.555 126.443 527.435 125.953 527.827C125.464 528.219 124.681 528.219 124.192 527.827C123.8 527.435 123.8 526.555 123.506 526.065C123.409 525.869 123.213 525.674 122.919 525.772C122.821 525.772 122.626 525.967 122.626 526.065C122.43 526.75 122.234 527.436 121.94 528.023C121.549 528.708 120.668 529.099 120.179 529.98C119.689 530.861 119.787 532.134 119.494 532.427C119.2 532.721 118.808 531.742 118.417 531.546C118.025 531.351 117.536 531.742 117.145 532.623C116.753 533.504 116.362 534.385 115.872 535.266C115.481 535.657 114.991 535.266 114.991 534.874C114.991 534.483 115.383 533.993 115.676 533.308C115.872 532.525 115.97 531.742 115.872 530.861C115.774 530.176 115.872 529.393 116.068 528.708C116.264 528.316 116.753 528.316 116.949 528.023C117.145 527.729 117.145 527.24 116.949 526.946C116.655 526.457 116.362 526.065 115.872 525.869C115.579 525.674 115.089 525.674 114.795 525.869C114.6 526.163 114.502 526.555 114.6 526.946C114.698 527.338 114.6 527.729 114.404 528.023C114.208 528.219 113.719 528.219 113.132 528.023C112.544 527.729 111.859 527.533 111.174 527.338C110.783 527.338 110.783 527.729 110.489 528.023C110.195 528.316 109.804 528.219 109.608 528.414C109.412 528.708 109.412 529.197 109.608 529.491C110 529.98 110.195 530.47 110.293 531.057C110.097 531.938 109.804 532.819 109.412 533.7C109.021 534.776 108.629 535.755 108.14 536.734C107.748 537.419 107.259 537.419 107.063 537.125C106.868 536.929 106.868 536.44 106.672 536.244C106.476 536.049 105.987 536.049 105.791 535.559C105.595 534.874 105.497 534.091 105.595 533.406C105.693 532.623 105.595 531.938 105.399 531.253C105.204 530.861 104.714 530.861 104.127 531.448C103.344 532.427 102.463 533.308 101.484 534.091C100.603 534.483 99.6247 534.776 98.6459 534.972C98.2544 535.168 98.6459 535.657 98.6459 536.244C98.548 537.125 98.2544 537.908 97.765 538.593C97.3735 539.474 96.8841 540.355 97.0799 540.747C97.2756 541.138 98.1565 541.138 99.0374 540.551C99.9183 539.866 100.799 538.593 101.484 538.398C102.169 538.202 102.561 539.083 103.246 539.67C103.833 540.159 104.421 540.551 105.008 540.942C105.204 541.138 104.812 541.138 104.616 541.628C104.421 542.215 104.421 542.802 104.616 543.389C104.812 543.781 105.301 543.781 106.182 543.781C107.161 543.781 108.238 543.781 109.217 543.977C110.097 544.172 110.489 544.662 110.293 545.053C110.097 545.543 109.217 545.934 108.727 546.619C108.434 547.304 108.238 548.087 108.042 548.773C107.846 549.458 107.259 549.947 106.476 550.045C105.301 550.241 104.127 550.241 102.952 550.045C101.778 549.751 100.603 549.556 99.4289 549.36C98.548 549.36 98.1565 549.751 97.6671 549.751C97.1778 549.653 96.7863 549.36 96.5905 548.87C96.3948 548.479 96.3948 547.99 96.199 547.598C96.0033 547.109 95.5139 546.717 95.5139 546.326C95.6117 545.836 95.9054 545.445 96.3948 545.249C96.7863 545.053 97.2756 545.053 97.4714 544.857C97.6671 544.662 97.6671 544.27 97.3735 544.074C97.3735 544.074 97.2756 543.977 97.1778 543.977C96.4926 543.781 95.7096 543.683 95.0245 543.585C94.3394 543.291 93.5563 543.096 92.8712 542.9C92.4797 542.9 92.4797 543.291 92.6755 543.781C92.8712 544.172 93.3606 544.662 93.5563 545.053C93.7521 545.641 93.7521 546.228 93.5563 546.815C93.2627 547.696 93.067 548.675 93.1648 549.653C93.3606 550.339 94.2415 550.339 94.9266 550.534C95.5139 550.73 96.0032 551.122 96.4926 551.611C96.8841 552.002 97.3735 552.492 97.765 552.492C98.1565 552.492 98.6459 552.1 99.0374 551.807C99.4289 551.611 99.9183 551.611 100.31 551.807C100.897 552.1 101.289 552.59 101.582 553.079C102.072 553.764 102.365 554.645 102.463 555.526C102.365 556.309 102.169 556.994 102.072 557.679C102.072 558.071 102.463 558.071 102.952 557.875C103.54 557.484 104.225 557.19 104.91 556.994C105.987 556.798 107.748 556.798 109.021 556.603C110 556.407 110.978 556.113 111.859 555.526C112.446 555.232 112.936 554.645 113.132 553.96C113.327 553.275 113.327 552.492 113.132 551.807C112.936 551.317 112.642 550.73 112.251 550.241C111.957 549.849 112.055 549.262 112.446 548.968C113.229 548.381 114.012 547.892 114.795 547.402C116.068 546.717 117.242 545.738 118.025 544.564C118.906 543.291 119.298 541.53 119.983 540.453C120.374 539.67 121.06 539.083 121.94 538.887C122.332 538.887 122.332 539.279 123.017 539.572C123.996 539.768 125.073 539.866 126.051 539.768C126.932 539.67 127.813 539.768 128.694 539.964C129.281 540.159 129.771 540.649 129.966 541.236C130.162 541.921 130.162 542.802 130.358 543.194C130.554 543.585 131.043 543.585 132.12 542.998C133.392 542.215 134.566 541.334 135.643 540.355C136.524 540.062 136.133 540.062 135.643 539.866Z" fill="white"/>
<path d="M80.7342 540.257C81.6151 540.453 82.3981 540.844 83.1811 541.334C83.8662 541.725 84.2577 542.215 84.7471 542.215C85.2365 542.215 85.628 541.823 85.8238 541.138C86.0195 540.551 86.0195 539.768 85.8238 539.181C85.628 538.789 85.1386 538.789 84.9429 538.495C84.7471 538.3 84.7471 537.81 84.9429 537.223C85.3344 536.342 85.628 535.461 85.8238 534.58C86.0195 533.504 86.0195 532.133 86.2153 531.546C86.411 530.861 86.9004 530.861 87.0961 530.665C87.2919 530.47 87.2919 529.98 87.4877 528.904C87.8792 527.533 87.977 526.163 87.8792 524.793C87.5855 523.814 87.0961 522.835 86.6068 521.954C86.411 521.367 86.7046 520.878 87.2919 520.682C87.6834 520.486 88.1728 520.388 88.5643 520.486C89.0537 520.486 89.4452 520.486 89.8367 520.29C90.3261 519.997 90.7176 519.703 90.9133 519.214C91.1091 518.822 91.1091 518.333 90.7176 518.137C90.0324 517.941 89.2494 517.844 88.5643 517.941C87.6834 517.941 86.8025 517.941 85.9216 517.746C85.1386 517.452 84.3556 517.256 83.4747 517.061C82.7896 517.061 82.3981 517.452 81.9087 518.137C81.4193 518.92 80.9299 519.801 80.6363 520.78C80.1469 521.759 79.9512 522.933 79.9512 524.01C80.1469 524.891 81.0278 525.282 81.5172 525.967C81.9087 526.75 82.0066 527.533 81.713 528.414C81.6151 529.197 81.2236 529.882 80.6363 530.372C80.2448 530.568 79.7554 530.176 79.3639 529.687C78.9724 529.197 78.483 528.806 78.2873 528.806C78.0915 528.806 78.0915 529.197 78.2873 529.882C78.5809 530.665 78.9724 531.448 79.5597 532.036C80.2448 532.721 81.1257 533.112 81.5172 533.602C81.9087 533.993 81.9087 534.483 81.713 534.678C81.5172 534.874 81.0278 534.874 80.8321 535.559C80.6363 536.244 80.6363 537.517 80.4406 538.202C80.2448 538.887 79.7554 538.887 79.3639 538.593C78.8745 538.398 78.483 537.908 78.0915 537.712C77.7 537.419 77.1128 537.517 76.8191 537.908C76.4276 538.3 75.9383 539.181 75.2531 539.866C74.7637 540.453 74.0786 540.845 73.2956 540.942C72.9041 540.942 72.9041 540.551 72.6105 540.551C72.3168 540.551 71.9253 540.942 71.7296 541.432C71.5338 541.823 71.5338 542.313 71.7296 542.704C71.9253 543.194 72.3168 543.487 72.8062 543.585C73.1977 543.585 73.6871 543.194 74.0786 542.704C74.568 542.215 75.0574 541.823 75.6446 541.432C76.4276 540.942 77.2106 540.551 78.0915 540.355C78.9724 540.061 79.8533 540.061 80.7342 540.257Z" fill="white"/>
<path d="M96.1988 514.517C96.5903 514.713 97.0796 514.517 97.1775 514.125C97.1775 514.027 97.2754 513.93 97.2754 513.832C97.2754 513.44 96.8839 512.951 97.0796 512.755C97.2754 512.559 98.1563 512.559 98.8414 512.364C99.4287 512.07 100.016 511.678 100.603 511.287C101.288 510.895 102.169 510.406 102.561 511.091C102.952 511.776 102.952 513.538 103.442 514.615C103.833 515.691 104.714 516.181 105.203 516.768C105.595 517.453 105.693 518.236 105.399 518.921C105.203 519.606 104.714 519.998 105.008 520.487C105.203 520.879 106.084 521.368 106.574 521.76C106.965 522.249 106.965 522.641 107.455 522.445C107.944 522.249 108.727 521.368 109.608 520.683C110.489 519.998 111.37 519.606 111.174 519.411C110.978 519.215 109.608 519.215 109.021 518.334C108.433 517.257 108.335 515.985 108.629 514.811C108.825 513.93 109.314 513.93 109.706 513.734C110.195 513.538 110.489 512.951 110.391 512.461C110.195 511.776 109.314 510.895 109.118 510.308C108.923 509.623 109.314 509.232 109.51 508.546C109.804 507.861 109.608 507.078 109.118 506.589C108.14 506.197 107.063 506.1 106.084 506.197C105.105 506.197 104.225 506.197 103.246 506.393C102.365 506.687 101.484 506.98 100.603 507.47C99.8202 507.959 98.9393 508.253 97.9605 508.546C97.1775 508.742 96.3945 508.742 95.5136 508.742C94.8285 508.742 94.437 508.742 94.2412 508.938C94.0455 509.134 94.0455 509.623 94.0455 510.21C93.9476 510.993 94.1434 511.874 94.437 512.657C94.6327 513.44 95.3179 514.125 96.1988 514.517Z" fill="white"/>
<path d="M665.838 941.649C664.957 941.453 664.077 940.964 663.489 940.376C662.804 939.691 662.413 938.81 661.923 938.615C661.434 938.419 661.042 938.81 660.162 938.615C659.183 938.321 658.204 937.734 657.519 936.853C657.127 936.168 657.519 935.776 657.519 935.287C657.519 934.797 657.127 934.406 656.834 934.014C656.54 933.623 656.638 933.036 657.03 932.742C657.519 932.253 658.302 931.959 658.987 931.861C659.672 931.861 660.064 932.253 660.259 932.253C660.455 932.253 660.455 931.861 660.455 931.372C660.553 930.98 660.455 930.589 660.259 930.295C660.064 930.099 659.574 930.099 659.183 929.61C658.204 928.729 658.008 927.261 658.889 926.282L658.987 926.184C659.183 925.793 659.281 925.303 659.183 924.912C659.281 924.52 659.183 924.129 658.987 923.835C658.693 923.64 658.204 923.64 657.91 923.835C657.421 924.129 656.932 924.423 656.344 924.716C655.561 924.912 654.68 924.912 653.897 924.716C653.017 924.52 652.136 924.031 651.059 923.835C649.787 923.64 648.612 923.64 647.34 923.835C646.165 924.129 644.991 924.325 643.816 924.52C643.131 924.618 642.544 924.227 642.25 923.639C642.054 923.248 642.054 922.759 641.859 922.563C641.565 922.367 641.076 922.367 640.782 922.563C640.293 922.759 639.901 923.15 639.705 923.639C639.51 923.933 639.51 924.423 639.705 924.716C639.901 924.912 640.391 924.912 640.586 925.108C640.782 925.303 640.782 925.793 640.978 926.184C641.369 926.772 641.663 927.457 641.859 928.142C642.054 929.512 642.054 930.882 641.859 932.253C641.663 933.525 641.174 934.406 641.174 934.895C641.174 935.385 641.565 935.287 642.25 935.287C643.033 935.287 643.718 935.287 644.404 935.483C645.089 935.776 645.676 936.266 645.97 937.049C646.361 938.125 646.948 939.104 647.536 940.083C648.221 941.061 649.395 941.551 650.57 941.355C652.136 941.355 654.289 940.964 655.366 940.964C656.442 940.964 656.442 941.355 656.442 942.04C656.344 942.823 656.54 943.606 657.127 944.193C657.813 944.879 659.085 945.27 659.574 945.955C660.064 946.64 659.574 947.521 659.574 948.109C659.574 948.696 660.064 949.283 660.651 949.381C661.336 949.577 662.217 949.577 662.804 949.772C663.489 949.968 663.881 950.458 664.37 950.458C664.86 950.458 665.251 950.066 665.643 949.185C666.132 948.206 666.426 947.228 666.524 946.151C666.524 945.27 666.132 944.879 666.132 944.389C666.132 943.9 666.524 943.508 667.013 943.117C667.404 942.627 667.894 942.236 667.698 942.04C667.111 941.942 666.426 941.747 665.838 941.649Z" fill="white"/>
<path d="M71.5341 646.062C70.6532 646.16 69.7723 645.964 68.8914 645.671C68.0105 645.279 67.1296 644.398 66.2487 644.398C65.3679 644.398 64.487 645.279 63.6061 645.671C62.7252 646.16 61.8443 646.062 61.4528 646.552C61.0613 647.041 61.0613 647.824 61.4528 648.313C62.1379 648.705 62.921 648.901 63.6061 648.705C64.3891 648.607 65.1721 648.705 65.7594 649.096C66.2487 649.782 66.2487 650.663 65.7594 651.25C65.3679 652.131 64.487 653.011 64.487 653.892C64.487 654.675 65.0742 655.361 65.7594 655.654C66.1509 655.654 66.1509 654.773 66.6402 654.382C67.0318 653.892 67.9126 653.99 68.402 653.501C68.8914 653.012 68.7935 652.229 69.2829 651.739C69.6744 651.348 70.5553 651.348 71.0447 650.858C71.5341 650.369 71.4362 649.586 71.9256 648.705C72.3171 647.824 73.198 646.943 73.198 646.552C73.198 646.16 72.4149 646.062 71.5341 646.062Z" fill="white"/>
<path d="M741.301 140.336C740.714 138.574 739.637 137.106 738.267 135.931C736.31 134.659 734.058 133.68 731.709 133.288C729.556 132.897 727.794 132.897 726.424 131.135C725.054 129.373 724.271 125.948 722.509 122.816C720.845 119.781 718.202 117.335 715.07 115.866C711.938 114.888 708.708 114.3 705.479 114.105C702.64 113.615 699.9 112.93 697.159 111.951L695.691 111.462C694.712 111.168 693.831 110.875 692.95 110.483L692.461 110.287C691.482 109.896 690.503 109.602 689.72 109.211C687.665 108.232 685.414 107.449 683.163 107.058C680.52 106.666 677.094 106.666 673.962 106.177C671.32 105.883 668.775 105.002 666.524 103.534C666.132 103.24 665.741 102.947 665.447 102.555L665.349 102.457C665.056 102.066 664.664 101.772 664.37 101.381C664.077 100.989 663.783 100.696 663.392 100.304L663.196 100.108C662.804 99.7169 662.413 99.3254 662.021 98.836L661.924 98.7381C661.826 98.6402 661.728 98.5423 661.532 98.3466C657.911 95.7039 654.779 92.2783 652.625 88.2653C639.51 85.6227 639.51 84.3503 638.629 81.5119C637.552 77.8905 635.888 74.4648 633.833 71.2349C631.973 68.2986 628.939 66.4389 625.514 66.0474C621.109 65.7538 616.705 66.8304 612.888 69.0816C607.7 72.3115 602.806 75.7372 598.01 79.5544C593.214 83.0779 588.81 85.6227 586.265 88.7547C584.21 91.4953 582.742 94.6273 581.861 97.9551C581.274 99.9126 580.393 101.87 579.218 103.632C578.044 105.296 576.38 106.666 574.422 107.547C570.311 109.798 566.103 111.854 561.796 113.615C561.307 113.811 560.817 114.007 560.328 114.203L559.839 114.398C559.545 114.496 559.154 114.594 558.86 114.79C558.664 114.888 558.468 114.888 558.273 114.986C557.979 115.083 557.685 115.181 557.392 115.279L556.707 115.475C556.413 115.573 556.119 115.671 555.826 115.671C555.63 115.769 555.336 115.769 555.141 115.866L554.26 116.062L553.575 116.258L552.596 116.454L551.813 116.649C551.519 116.747 551.226 116.845 550.834 116.845L550.051 117.041C549.366 117.237 548.583 117.335 547.8 117.53C541.144 118.803 534.587 120.369 528.127 122.326C523.331 124.088 522.45 125.85 518.045 129.275C513.641 132.701 505.811 137.986 501.015 141.021C496.219 144.055 494.457 144.936 491.815 146.697C488.389 148.949 485.159 151.591 482.223 154.528C478.406 158.443 474.882 162.749 471.75 167.154C468.324 172.145 464.703 176.941 460.886 181.541C458.537 184.184 455.894 186.533 453.839 189.078L453.741 189.176C453.643 189.274 453.545 189.372 453.447 189.567C453.154 189.959 452.86 190.252 452.566 190.644C452.468 190.84 452.371 190.938 452.175 191.133C451.979 191.525 451.685 191.818 451.49 192.21C451.392 192.406 451.294 192.504 451.196 192.699C450.902 193.189 450.609 193.776 450.315 194.265C448.162 199.061 448.162 205.13 447.672 209.926C447.281 214.721 446.4 218.245 445.911 221.279C445.715 222.356 445.617 223.335 445.519 224.313C445.421 224.901 445.421 225.39 445.323 225.977C445.226 226.956 444.932 227.837 444.54 228.718C443.66 230.48 441.898 231.36 439.744 234.395C437.591 237.429 434.949 242.714 432.306 245.748C430.348 248.195 427.51 249.761 424.476 250.153C421.931 250.251 419.386 250.838 417.037 251.914C414.884 253.187 413.122 255.829 409.599 259.745C406.075 263.66 400.888 268.945 398.245 274.132C390.415 289.793 385.13 298.993 379.942 307.9C379.355 308.976 378.67 309.955 378.082 311.032L376.614 313.576L375.929 314.751L374.559 317.002L373.972 317.981C373.58 318.666 373.189 319.351 372.797 320.036C372.601 320.428 372.406 320.721 372.21 321.113C371.818 321.7 371.525 322.385 371.133 322.973C370.938 323.364 370.742 323.658 370.546 324.049C370.252 324.636 369.861 325.224 369.567 325.811C369.371 326.105 369.176 326.496 368.98 326.79C368.686 327.377 368.295 327.964 368.001 328.552C367.903 328.845 367.708 329.041 367.61 329.335C367.218 330.118 366.729 330.901 366.435 331.684C364.184 336.382 362.324 341.178 360.758 346.071C358.801 351.552 356.354 356.838 353.32 361.732C350.286 366.528 346.762 370.051 343.239 376.119C339.715 382.188 336.289 390.997 333.647 396.576C331.885 400.588 329.732 404.406 327.089 407.929C324.936 410.963 322.293 414.487 319.65 418.01C317.008 421.534 314.365 424.96 311.331 429.756C307.612 435.335 304.675 441.305 302.424 447.667C300.075 454.616 298.705 462.544 290.875 470.374L290.19 471.255L289.7 471.94C289.309 472.332 289.015 472.821 288.721 473.213C288.428 473.604 288.232 473.898 287.938 474.191C287.645 474.583 287.351 474.974 287.058 475.366C286.764 475.66 286.568 476.051 286.372 476.345C286.079 476.736 285.785 477.128 285.492 477.421C285.296 477.715 285.002 478.009 284.806 478.302C284.513 478.694 284.317 478.987 284.023 479.379L283.436 480.26C283.24 480.553 282.947 480.945 282.751 481.239L282.164 482.119C281.968 482.413 281.772 482.707 281.576 483C281.381 483.294 281.185 483.588 280.989 483.881C280.793 484.175 280.598 484.468 280.402 484.664L279.815 485.447C279.619 485.741 279.521 485.937 279.325 486.23C279.13 486.524 278.934 486.72 278.836 487.013L278.347 487.698C278.151 487.992 278.053 488.188 277.857 488.481C277.661 488.775 277.564 488.971 277.466 489.166C277.27 489.46 277.172 489.656 276.976 489.949L276.585 490.537C276.389 490.83 276.291 491.026 276.095 491.32C275.998 491.515 275.9 491.711 275.802 491.907C275.704 492.201 275.508 492.396 275.41 492.592C275.312 492.788 275.215 492.984 275.019 493.179C274.921 493.473 274.725 493.669 274.627 493.865C274.529 494.06 274.431 494.256 274.334 494.452C274.138 494.745 273.942 495.137 273.844 495.431C273.746 495.528 273.746 495.626 273.649 495.724C273.453 496.214 273.159 496.605 272.963 497.094C269.244 504.142 266.112 511.58 263.567 519.117C261.708 525.185 260.533 531.547 260.044 537.909C259.652 542.998 259.652 548.088 260.044 553.178C260.435 557.582 261.316 561.008 261.805 564.531C262.197 568.446 262.295 572.361 262.197 576.276C262.197 581.072 262.197 587.141 261.805 592.426C261.414 597.613 260.533 602.018 259.652 607.695C259.554 608.576 259.359 609.554 259.261 610.435V610.533L259.163 610.925C258.967 612.099 258.869 613.274 258.673 614.546C258.478 615.72 258.282 616.993 258.184 618.167C258.184 618.363 258.086 618.657 258.086 618.852C257.89 620.125 257.695 621.397 257.499 622.768L257.401 623.453C257.205 624.823 256.912 626.291 256.716 627.661C255.444 635.1 253.682 642.93 252.311 647.726C251.431 650.271 250.648 652.913 250.158 655.556C250.256 656.731 250.941 657.905 251.92 658.59C252.801 659.471 253.682 660.352 254.073 664.267C254.465 668.182 254.465 675.131 255.346 679.536C255.639 681.2 256.324 682.864 257.303 684.332C257.401 684.43 257.401 684.527 257.499 684.625C257.695 684.919 257.89 685.115 258.086 685.408C258.282 685.604 258.38 685.8 258.576 685.996C258.771 686.289 259.065 686.583 259.359 686.876C259.554 687.072 259.75 687.268 259.946 687.464C260.239 687.855 260.631 688.149 261.022 688.54C261.218 688.736 261.414 688.932 261.61 689.128C262.197 689.715 262.882 690.4 263.567 691.085C272.474 699.796 280.793 709.094 288.624 718.784C296.454 734.444 303.011 747.56 307.122 754.998C309.08 758.62 311.331 762.143 313.876 765.373C314.169 765.765 314.463 766.156 314.757 766.548C316.518 768.897 317.986 771.442 319.161 774.182C319.846 775.454 320.042 776.923 319.846 778.293C319.65 778.978 319.161 778.978 317.889 779.37C316.127 779.761 314.659 780.838 313.778 782.404C313.093 784.166 313.974 786.808 316.616 790.723C319.748 795.128 323.076 799.336 326.697 803.349C329.732 806.873 331.493 808.537 333.255 810.298L338.149 815.192C339.323 816.171 340.302 817.346 341.085 818.618C341.477 819.205 341.379 819.988 340.987 820.478C340.694 820.771 340.204 820.771 338.932 820.086C337.66 819.303 335.408 817.835 334.332 817.248C333.255 816.66 333.255 817.15 333.255 817.639C333.255 818.226 333.255 818.814 334.528 819.89C336.387 821.358 338.443 822.435 340.596 823.316C341.085 823.512 341.575 823.61 342.064 823.707C342.26 823.707 342.456 823.805 342.553 823.805C342.847 823.903 343.141 823.903 343.336 824.001L344.119 824.099L344.805 824.197C345.098 824.295 345.49 824.295 345.783 824.393C347.251 824.882 348.524 825.567 349.698 826.546C351.46 827.72 354.103 829.482 357.137 831.244C360.171 833.006 363.695 834.768 366.337 836.04C368.099 837.117 369.959 837.9 372.014 838.193C373.287 838.193 374.167 837.312 375.048 836.04C375.929 834.768 376.81 833.006 377.691 832.516C378.572 832.125 379.453 832.908 380.334 834.278C381.215 835.648 382.095 837.312 382.976 838.683C383.759 839.955 384.836 840.934 386.01 841.717C387.674 842.793 389.436 843.674 391.198 844.555C393.938 845.828 396.483 847.491 398.636 849.547C411.752 862.662 422.225 871.765 428.293 876.854C434.361 881.944 436.123 882.727 437.004 883.608C437.885 884.489 437.885 885.37 439.842 889.089C441.8 892.808 445.715 899.366 456.188 915.026C458.83 920.213 458.83 921.584 458.341 923.541C457.949 925.499 457.069 928.141 456.188 931.176C455.307 934.21 454.426 937.733 454.034 939.887C453.545 941.453 453.643 943.214 454.426 944.682C455.992 947.521 457.754 950.066 459.907 952.513C463.235 956.33 466.367 960.245 469.107 964.551C471.456 968.662 472.337 972.577 473.708 974.633C475.078 976.688 476.742 976.59 477.623 975.514C478.406 973.752 478.797 971.794 478.699 969.837C478.797 967.683 479.286 965.53 479.972 963.475C480.657 962.202 481.538 962.202 482.614 962.79C485.355 964.943 487.9 967.39 490.249 970.032C498.079 972.675 498.079 975.318 498.274 977.471C498.274 979.233 498.764 980.897 499.841 982.267C500.624 983.05 501.7 983.246 502.679 982.659C503.364 982.267 503.364 981.386 503.756 978.743C504.441 975.318 504.93 971.794 505.028 968.271C505.028 964.747 504.147 962.202 504.343 957.602C504.539 953.002 505.909 946.444 505.909 941.257C505.909 938.614 509.824 934.699 511.781 932.35C513.739 929.903 513.739 929.12 512.858 928.239C511.39 927.261 510.118 926.086 508.943 924.716C507.671 922.954 506.79 920.311 506.985 913.851C507.083 911.405 507.279 908.37 507.377 904.945V904.064C507.377 903.183 507.475 902.302 507.475 901.323V897.408C507.475 896.821 507.377 896.136 507.377 895.451C507.377 894.668 507.279 893.983 507.279 893.2C507.181 892.514 507.083 891.731 507.083 890.948C506.985 890.165 506.985 889.48 506.79 888.697C506.692 887.914 506.496 887.131 506.398 886.348C506.3 885.565 506.202 884.782 506.007 883.999V883.804C503.364 875.973 504.734 870.688 505.322 865.501C506.007 860.215 506.007 855.028 507.279 851.113C508.551 847.198 511.194 844.555 513.347 840.64C515.599 836.529 517.067 832.125 517.752 827.525C518.143 823.61 517.36 820.967 518.143 816.66C519.024 812.256 521.667 806.188 522.939 801.392C524.212 796.596 524.212 793.072 526.463 788.276C528.714 783.48 533.021 777.412 541.732 766.939C550.443 756.466 563.558 741.589 570.507 733.368C577.456 725.048 578.337 723.286 578.337 721.623C578.044 719.665 577.652 717.805 577.065 715.946C576.673 713.792 576.673 711.15 578.337 709.877C580.099 708.605 583.623 708.605 586.167 708.605C588.125 708.899 590.082 708.605 591.844 707.724C593.117 706.843 593.997 705.081 597.913 698.132C601.828 691.183 608.777 678.949 614.943 669.357C621.109 659.765 626.297 652.816 628.058 648.02C629.82 643.224 628.058 640.581 627.178 637.938C626.492 635.198 626.101 632.457 625.905 629.619C625.22 626.585 624.926 623.551 625.024 620.419C625.416 617.776 627.178 616.014 630.31 608.184C633.442 600.354 637.748 586.358 639.901 578.038C642.055 569.719 642.055 567.174 641.663 564.531C641.076 562.28 640.684 559.931 640.391 557.582C640.489 556.114 641.174 554.744 642.153 553.667C643.131 552.199 643.914 550.535 644.306 548.871C644.795 546.718 644.502 544.467 643.425 542.509C642.153 539.671 639.51 535.756 639.51 533.113C639.51 527.925 642.153 526.555 643.425 524.598C644.697 522.64 644.697 519.997 646.068 511.678C647.34 503.359 649.983 489.46 651.744 477.617C653.506 465.872 654.387 456.28 655.268 449.233C656.149 442.284 657.03 437.879 657.911 433.083C658.694 428.092 659.868 423.1 661.434 418.206C663.098 414.193 664.958 410.18 667.111 406.461C668.188 404.895 668.481 403.035 667.992 401.274C667.6 399.512 666.72 396.869 666.23 394.324C665.839 391.682 665.839 389.039 666.23 386.494C666.817 383.46 667.698 380.622 668.873 377.783C670.145 374.26 671.907 369.953 672.788 367.311C673.669 365.549 673.669 363.395 672.788 361.634C671.907 359.48 670.145 355.957 669.754 354.195C669.362 352.433 670.145 352.433 674.55 349.399C678.954 346.365 686.784 340.199 690.699 336.773C694.614 333.347 694.614 332.369 694.223 330.215C693.538 327.475 693.146 324.734 692.95 321.896C693.146 319.253 693.831 316.806 695.104 314.457C696.67 310.444 698.627 306.431 700.78 302.712C703.619 298.601 706.262 294.393 708.611 290.086C710.372 286.171 710.372 282.648 711.253 280.005C712.134 277.362 713.896 275.6 714.777 272.566C715.658 269.532 715.658 265.128 716.93 261.213C718.3 257.787 720.062 254.557 722.117 251.621C723.39 249.468 723.39 248.587 722.998 248.097C721.53 247.314 720.258 246.238 719.083 245.063C716.441 242.42 712.134 237.233 709.491 234.199C708.023 232.731 706.751 231.067 705.576 229.403C705.087 228.033 704.793 226.564 704.696 224.998C704.304 222.356 703.423 218.049 702.934 213.645C702.444 209.24 702.542 204.934 702.053 202.291C701.661 199.649 700.78 198.768 701.172 196.614C702.151 193.58 703.227 190.742 704.696 187.903C705.968 184.869 706.849 182.227 708.219 178.703C709.785 174.299 711.84 169.992 714.287 166.077C717.419 161.281 720.943 156.779 724.76 152.57C725.739 151.493 726.62 150.515 727.305 149.732C727.403 149.634 727.599 149.438 727.696 149.34C727.794 149.242 727.892 149.144 728.088 148.949C728.284 148.753 728.382 148.655 728.577 148.459C728.675 148.361 728.773 148.263 728.871 148.166C729.067 148.068 729.165 147.872 729.36 147.774C729.458 147.676 729.556 147.578 729.654 147.578C729.752 147.48 729.948 147.383 730.045 147.285C730.143 147.187 730.241 147.187 730.339 147.089C730.437 146.991 730.633 146.893 730.731 146.795C730.828 146.697 730.926 146.697 731.024 146.6C731.122 146.502 731.318 146.404 731.416 146.404C733.08 145.719 734.841 145.327 736.701 145.131C738.267 144.74 739.833 144.055 741.105 142.978C741.693 142.587 741.791 141.412 741.301 140.336Z" fill="white"/>
</svg>
